<svg id="Group_488" data-name="Group 488" xmlns="http://www.w3.org/2000/svg" width="195.93" height="123.148" viewBox="0 0 195.93 123.148">
  <g id="Group_393" data-name="Group 393" transform="translate(0)">
    <path id="Path_289" data-name="Path 289" d="M413.137,178v-8.32a17.523,17.523,0,0,0-9.171-15.907l-34.173-17.134v8.644a13.379,13.379,0,0,1,3.939,9.38c.02.291.033,15.089.033,20.968,0,1.276,0,2.133,0,2.327V178H350.091a12.226,12.226,0,0,0,11.425,7.875h12.252v39.751l.066-.029,7.809-3.923V178.863h-.023V150.419A13.395,13.395,0,0,1,389.5,162.6l.017,55.119,7.875-3.949V186.745h-.013V158.3a13.4,13.4,0,0,1,7.878,12.177l.009,39.336,7.872-3.956V185.874h13.788L430.878,178Z" transform="translate(-291.726 -136.638)" fill="#fdce00"/>
    <g id="Group_392" data-name="Group 392" transform="translate(0 101.694)">
      <path id="Path_290" data-name="Path 290" d="M438.81,368.127a6.76,6.76,0,0,1,0-13.507,5.488,5.488,0,0,1,4.788,2.947l3.786-1.805a9.347,9.347,0,0,0-8.574-5.027c-6.2,0-10.979,4.287-10.979,10.639,0,6.322,4.78,10.639,10.979,10.639a9.48,9.48,0,0,0,8.6-5.087l-3.786-1.79A5.565,5.565,0,0,1,438.81,368.127Z" transform="translate(-332.54 -350.734)" fill="#fdce00"/>
      <path id="Path_291" data-name="Path 291" d="M525.074,368.163h-3.007v-4.688h2.791v0h1.113a6.675,6.675,0,0,0,6.052-3.855h-9.957V355.3h5.257a6.675,6.675,0,0,0,6.052-3.855H517.688v20.569h10.484a6.674,6.674,0,0,0,6.052-3.855Z" transform="translate(-379.715 -351.109)" fill="#fdce00"/>
      <path id="Path_292" data-name="Path 292" d="M576.969,358.078c0-3.823-2.652-6.63-6.938-6.63h-9.621v20.57h4.378v-7.309H568c.209,0,.432-.007.664-.018l2.3,4.215a7.024,7.024,0,0,0,6.615,3.642l-4.651-8.506A5.964,5.964,0,0,0,576.969,358.078ZM564.788,355.3h4.626a2.788,2.788,0,1,1,0,5.551h-4.626Z" transform="translate(-402.144 -351.109)" fill="#fdce00"/>
      <path id="Path_293" data-name="Path 293" d="M388.28,356.72c0-1.233,1.049-2.035,2.9-2.035a9.2,9.2,0,0,1,4.171.992l4.248-2.009a11.439,11.439,0,0,0-8.018-2.868c-4.842,0-7.8,2.837-7.8,6.26,0,7.74,11.842,5.242,11.842,8.82,0,1.2-1.141,2.282-3.577,2.282a8.924,8.924,0,0,1-4.758-1.362l-4.185,1.979a11.876,11.876,0,0,0,8.758,3.269c5.52,0,8.234-2.837,8.234-6.6C400.091,357.768,388.28,359.958,388.28,356.72Z" transform="translate(-309.055 -350.768)" fill="#fdce00"/>
      <path id="Path_294" data-name="Path 294" d="M609.11,356.72c0-1.233,1.049-2.035,2.9-2.035a9.2,9.2,0,0,1,4.171.992l4.248-2.009a11.439,11.439,0,0,0-8.018-2.868c-4.842,0-7.8,2.837-7.8,6.26,0,7.74,11.842,5.242,11.842,8.82,0,1.2-1.141,2.282-3.577,2.282a8.924,8.924,0,0,1-4.758-1.362l-4.185,1.979a11.874,11.874,0,0,0,8.758,3.269c5.519,0,8.234-2.837,8.234-6.6C620.922,357.768,609.11,359.958,609.11,356.72Z" transform="translate(-424.993 -350.768)" fill="#fdce00"/>
      <path id="Path_295" data-name="Path 295" d="M483.4,368.139V351.4l-4.41,2.085v18.5h8.614a6.674,6.674,0,0,0,6.053-3.855H483.4Z" transform="translate(-359.4 -351.086)" fill="#fdce00"/>
      <path id="Path_296" data-name="Path 296" d="M347.655,363.661c0,2.868-1.634,4.842-4.81,4.842A4.457,4.457,0,0,1,338,363.661V351.449l-4.44,2.1v10.236c0,5.089,3.022,8.6,9.282,8.6s9.282-3.515,9.282-8.6V351.449l-4.472,2.114Z" transform="translate(-283.048 -351.109)" fill="#fdce00"/>
      <path id="Path_297" data-name="Path 297" d="M284.671,358.789l-5.482-7.34h-5.328v19.578h4.252V357.185l6.573,8.329,6.544-8.329v8.479a7.414,7.414,0,0,0,4.282,6.724V351.449h-5.229Z" transform="translate(-251.704 -351.109)" fill="#fdce00"/>
      <path id="Path_298" data-name="Path 298" d="M238.625,361.069c2.282-.4,4.5-2.1,4.5-4.688,0-3.423-2.96-5.582-7.771-5.582a10.122,10.122,0,0,0-7.864,3.269l3.564,1.686a7.349,7.349,0,0,1,3.867-1.069c2.128,0,3.824.8,3.824,2.437,0,1.51-1.542,2.189-3.824,2.189-.771,0-2.19,0-2.56-.031v3.947c.308-.031,1.7-.061,2.56-.061,2.868,0,4.132.74,4.132,2.374,0,1.542-1.387,2.621-3.885,2.621a8.347,8.347,0,0,1-4.2-1.191l-3.758,1.777c1.51,1.851,4.348,3.3,8.111,3.3,4.934,0,8.111-2.5,8.111-6.045C243.436,362.918,240.722,361.284,238.625,361.069Z" transform="translate(-227.215 -350.768)" fill="#fdce00"/>
    </g>
  </g>
</svg>
