<svg id="圖層_1" data-name="圖層 1" xmlns="http://www.w3.org/2000/svg" viewBox="0 0 424.84 424.84"><defs><style>.cls-1,.cls-2,.cls-3,.cls-4{fill:none;}.cls-1,.cls-3,.cls-4{stroke:#231815;}.cls-1{stroke-miterlimit:10;stroke-width:10px;}.cls-2{stroke:#468ccb;}.cls-2,.cls-3,.cls-4{stroke-linecap:round;stroke-linejoin:round;stroke-width:7px;}.cls-4{stroke-dasharray:9.08 18.15;}</style></defs><title>工作區域 3</title><circle class="cls-1" cx="212.42" cy="212.42" r="202.62"/><line class="cls-2" x1="212.42" y1="90.2" x2="212.42" y2="104.27"/><line class="cls-2" x1="212.42" y1="320.57" x2="212.42" y2="334.64"/><line class="cls-2" x1="90.2" y1="198.89" x2="104.27" y2="198.89"/><line class="cls-2" x1="320.57" y1="198.89" x2="334.64" y2="198.89"/><line class="cls-2" x1="130.78" y1="117.25" x2="140.73" y2="127.2"/><line class="cls-2" x1="293.67" y1="280.15" x2="303.62" y2="290.1"/><line class="cls-2" x1="121.22" y1="280.53" x2="131.16" y2="270.59"/><line class="cls-2" x1="284.11" y1="117.64" x2="294.06" y2="107.69"/><polyline class="cls-3" points="214.92 153.9 212.42 149.57 209.92 153.9"/><line class="cls-4" x1="200.84" y1="169.62" x2="164.54" y2="232.51"/><polyline class="cls-3" points="160 240.37 157.5 244.7 162.5 244.7"/><line class="cls-4" x1="180.65" y1="244.7" x2="253.26" y2="244.7"/><polyline class="cls-3" points="262.34 244.7 267.34 244.7 264.84 240.37"/><line class="cls-4" x1="255.76" y1="224.65" x2="219.46" y2="161.76"/></svg>