<?xml version="1.0" encoding="iso-8859-1"?>
<!-- Generator: Adobe Illustrator 21.0.2, SVG Export Plug-In . SVG Version: 6.00 Build 0)  -->
<svg version="1.1" id="&#x5716;&#x5C64;_1" xmlns="http://www.w3.org/2000/svg" xmlns:xlink="http://www.w3.org/1999/xlink" x="0px"
	 y="0px" viewBox="0 0 424.84 424.84" style="enable-background:new 0 0 424.84 424.84;" xml:space="preserve">
<title>工作區域 3 複本 6</title>
<circle style="fill:none;stroke:#231815;stroke-width:10;stroke-miterlimit:10;" cx="213.05" cy="212.56" r="202.62"/>
<line style="fill:none;stroke:#231815;stroke-width:7;stroke-linecap:round;stroke-linejoin:round;" x1="225.133" y1="176.211" x2="283.21" y2="287.55"/>
<line style="fill:none;stroke:#231815;stroke-width:7;stroke-linecap:round;stroke-linejoin:round;" x1="195.702" y1="169.936" x2="122.98" y2="227.565"/>
<line style="fill:none;stroke:#231815;stroke-width:7;stroke-linecap:round;stroke-linejoin:round;" x1="127.284" y1="251.785" x2="273.223" y2="299.961"/>
<circle style="fill:none;stroke:#231815;stroke-width:7;stroke-linecap:round;stroke-linejoin:round;" cx="102.67" cy="243.66" r="25.92"/>
<circle style="fill:none;stroke:#231815;stroke-width:7;stroke-linecap:round;stroke-linejoin:round;" cx="214.21" cy="155.27" r="23.62"/>
<circle style="fill:none;stroke:#231815;stroke-width:7;stroke-linecap:round;stroke-linejoin:round;" cx="294.76" cy="307.07" r="22.68"/>
<path style="fill:none;stroke:#F5C51D;stroke-width:7;stroke-miterlimit:10;" d="M107,150.06H72.63
	c-11.931,0.027-21.597,9.689-21.63,21.62l0,0c0.032,9.515,6.26,17.9,15.36,20.68c1.478,0.459,2.669,1.562,3.24,3l4.37,11l0,0v0.09
	l0,0v0.09l0,0v0.08l0,0v0.07l0,0v0.05l0,0l0,0v0.05l0,0v0.06l0,0l0.05,0.06l0,0l0.06,0.06l0,0l0.06,0.06l0,0h0.06l0,0h0.05l0,0l0,0
	h0.05l0,0h0.07l0,0c0.157,0.073,0.327,0.114,0.5,0.12h0.08c0.173-0.006,0.343-0.047,0.5-0.12l0,0h0.07l0,0h0.05l0,0l0,0h0.05l0,0
	h0.06l0,0l0.06-0.06l0,0l0.06-0.06l0,0l0.05-0.06l0,0v-0.06l0,0v-0.05l0,0l0,0v-0.05l0,0v-0.07l0,0v-0.08l0,0v-0.09l0,0v-0.09l0,0
	l5.15-9.77c0.787-1.985,2.705-3.289,4.84-3.29H107c11.927-0.033,21.587-9.693,21.62-21.62l0,0
	C128.587,159.753,118.927,150.093,107,150.06z"/>
<path style="fill:none;stroke:#F5C51D;stroke-width:7;stroke-miterlimit:10;" d="M275.27,66.65h-34.34
	c-11.927,0.033-21.587,9.693-21.62,21.62l0,0c0.01,9.534,6.242,17.945,15.36,20.73c1.478,0.459,2.669,1.562,3.24,3l4.37,11l0,0v0.09
	l0,0v0.09l0,0v0.08l0,0v0.07l0,0v0.05l0,0l0,0v0.05l0,0v0.06l0,0l0.05,0.06l0,0l0.06,0.06l0,0l0.06,0.06l0,0h0.06l0,0h0.05l0,0l0,0
	h0.05l0,0h0.07l0,0c0.157,0.073,0.327,0.114,0.5,0.12h0.08c0.173-0.006,0.343-0.047,0.5-0.12l0,0h0.07l0,0h0.05l0,0l0,0h0.05l0,0
	h0.06l0,0l0.06-0.06l0,0l0.06-0.06l0,0l0.05-0.06l0,0v-0.06l0,0v-0.05l0,0l0,0v-0.05l0,0v-0.07l0,0v-0.08l0,0v-0.09l0,0V123l0,0
	l3.89-9.81c0.787-1.985,2.705-3.289,4.84-3.29h21.17c11.927-0.033,21.587-9.693,21.62-21.62l0,0
	C295.673,76.805,286.726,67.322,275.27,66.65z"/>
<path style="fill:none;stroke:#F5C51D;stroke-width:7;stroke-miterlimit:10;" d="M340.62,211.94h-34.34
	c-11.927,0.033-21.587,9.693-21.62,21.62l0,0c0.029,9.51,6.248,17.893,15.34,20.68c1.478,0.459,2.669,1.562,3.24,3l4.37,11l0,0v0.09
	l0,0v0.09l0,0v0.08l0,0v0.07l0,0v0.05l0,0l0,0v0.05l0,0v0.06l0,0l0.05,0.06l0,0l0.06,0.06l0,0l0.06,0.06l0,0h0.06l0,0h0.05l0,0l0,0
	h0.05l0,0h0.07l0,0c0.157,0.073,0.327,0.114,0.5,0.12h0.08c0.173-0.006,0.343-0.047,0.5-0.12l0,0h0.07l0,0h0.05l0,0l0,0h0.05l0,0
	h0.06l0,0l0.06-0.06l0,0l0.06-0.06l0,0l0.05-0.06l0,0v-0.06l0,0v-0.05l0,0l0,0v-0.05l0,0v-0.07l0,0v-0.08l0,0v-0.09l0,0v-0.09l0,0
	l3.89-9.81c0.787-1.985,2.705-3.289,4.84-3.29h21.17c11.927-0.033,21.587-9.693,21.62-21.62l0,0
	C360.977,222.071,352.048,212.621,340.62,211.94z"/>
</svg>
