<svg id="圖層_1" data-name="圖層 1" xmlns="http://www.w3.org/2000/svg" viewBox="0 0 424.84 424.84"><defs><style>.cls-1,.cls-3,.cls-4{fill:none;}.cls-1,.cls-3{stroke:#231815;}.cls-1,.cls-4{stroke-miterlimit:10;}.cls-1{stroke-width:10px;}.cls-2{fill:#f5c51d;}.cls-3,.cls-4{stroke-linecap:round;stroke-width:7px;}.cls-3{stroke-linejoin:round;}.cls-4{stroke:#f5c51d;}</style></defs><title>工作區域 3 複本 7</title><circle class="cls-1" cx="212.42" cy="212.56" r="202.62"/><path class="cls-2" d="M111.9,132.4h0l0-.17v0l0-.15v0l0-.13,0-.06,0-.11,0-.07,0-.1,0-.08,0-.09,0-.08,0-.05-11.55-20v0l-.08-.14,0,0-.09-.13,0,0-.09-.12,0,0-.08-.1,0-.05-.08-.08-.06-.06-.06-.06-.08-.08-.05,0-.1-.08,0,0-.12-.09,0,0-.13-.09,0,0-.14-.08h0l-.13-.07,0,0-.11-.05-.08,0-.08,0-.11,0,0,0-.14,0h0a3.83,3.83,0,0,0-1.08-.18h-.18a3.83,3.83,0,0,0-1.08.18h0l-.14,0,0,0-.11,0-.08,0-.08,0-.11.05,0,0-.13.07h0l-.14.08,0,0-.13.09,0,0-.12.09,0,0-.1.08-.05,0-.08.08-.06.06-.06.06-.08.08,0,.05-.08.1,0,0-.09.12,0,0-.09.13,0,0-.08.14v0l-11.55,20h0l-.09.16h0l-.08.17h0l-.07.16v0l-.06.15v0l0,.14v0l0,.12,0,.07,0,.11,0,.09V133s0,.07,0,.11v.09s0,.06,0,.09,0,.07,0,.11v.06s0,.1,0,.14v0a3.83,3.83,0,0,0,.64,1.71v0l.09.13,0,.06.07.08.06.07.06.07.07.07.06.07.06.06.08.08,0,0,.11.09,0,0,.13.1h0a3.84,3.84,0,0,0,1,.53h0l.17.05h0l.15,0h0l.13,0h.07l.11,0h24.26l.09,0,.11,0,.07,0,.12,0h0l.14,0h0l.15-.06h0l.16-.07h0l.17-.08h0l.16-.09h0l.14-.09,0,0,.11-.08.06,0,.08-.06.08-.07,0,0,.11-.1h0a3.83,3.83,0,0,0,.7-.85v0l.08-.14,0-.09,0-.07.07-.15v0q.07-.17.13-.34h0l0-.15v0l0-.13V134l0-.1,0-.1v-.07l0-.13v0q0-.09,0-.17h0A3.84,3.84,0,0,0,111.9,132.4Z"/><rect class="cls-3" x="138.06" y="72.4" width="191.36" height="25.04"/><line class="cls-3" x1="138.06" y1="115.76" x2="299.77" y2="115.76"/><line class="cls-3" x1="138.06" y1="132.92" x2="245.87" y2="132.92"/><rect class="cls-3" x="138.06" y="150.96" width="191.36" height="25.04"/><line class="cls-3" x1="138.06" y1="194.32" x2="299.77" y2="194.32"/><line class="cls-3" x1="138.06" y1="211.49" x2="245.87" y2="211.49"/><rect class="cls-3" x="138.06" y="229.53" width="191.36" height="25.04"/><line class="cls-3" x1="138.06" y1="272.88" x2="299.77" y2="272.88"/><line class="cls-3" x1="138.06" y1="290.05" x2="245.87" y2="290.05"/><rect class="cls-3" x="138.06" y="308.09" width="191.36" height="25.04"/><line class="cls-3" x1="138.06" y1="351.45" x2="299.77" y2="351.45"/><line class="cls-3" x1="138.06" y1="368.61" x2="245.87" y2="368.61"/><line class="cls-4" x1="96.57" y1="303.66" x2="96.57" y2="132.92"/></svg>