<svg id="圖層_1" data-name="圖層 1" xmlns="http://www.w3.org/2000/svg" viewBox="0 0 424.84 424.84"><defs><style>.cls-1,.cls-2,.cls-3{fill:none;}.cls-1,.cls-3{stroke:#231815;}.cls-1,.cls-2{stroke-linecap:round;stroke-linejoin:round;stroke-width:7px;}.cls-2{stroke:#468ccb;}.cls-3{stroke-miterlimit:10;stroke-width:10px;}</style></defs><title>工作區域 3 複本 4</title><polygon class="cls-1" points="168.67 232.88 168.67 159.86 128.15 196.37 168.67 232.88"/><polygon class="cls-1" points="168.67 159.86 168.67 232.88 209.19 196.37 168.67 159.86"/><polygon class="cls-2" points="380.06 217.72 222.24 359.92 64.42 217.72 222.24 75.51 380.06 217.72"/><polygon class="cls-1" points="222.24 179.3 222.24 106.28 181.72 142.79 222.24 179.3"/><polygon class="cls-1" points="222.24 106.28 222.24 179.3 262.76 142.79 222.24 106.28"/><line class="cls-1" x1="239.11" y1="225.71" x2="281.37" y2="263.79"/><line class="cls-1" x1="281.37" y1="263.79" x2="323.64" y2="225.71"/><line class="cls-1" x1="239.11" y1="184.7" x2="281.37" y2="222.78"/><line class="cls-1" x1="281.37" y1="222.78" x2="323.64" y2="184.7"/><line class="cls-1" x1="323.64" y1="184.7" x2="281.37" y2="146.62"/><line class="cls-1" x1="281.37" y1="146.62" x2="239.11" y2="184.7"/><line class="cls-1" x1="239.11" y1="184.7" x2="239.11" y2="225.71"/><line class="cls-1" x1="281.37" y1="222.78" x2="281.37" y2="263.79"/><line class="cls-1" x1="323.64" y1="184.7" x2="323.64" y2="225.71"/><line class="cls-2" x1="64.42" y1="217.72" x2="64.42" y2="75.51"/><line class="cls-2" x1="380.07" y1="217.72" x2="380.07" y2="102.61"/><line class="cls-2" x1="222.24" y1="75.51" x2="222.24" y2="9.8"/><circle class="cls-3" cx="212.42" cy="212.42" r="202.62"/></svg>