<?xml version="1.0" encoding="iso-8859-1"?>
<!-- Generator: Adobe Illustrator 21.0.2, SVG Export Plug-In . SVG Version: 6.00 Build 0)  -->
<svg version="1.1" id="&#x5716;&#x5C64;_1" xmlns="http://www.w3.org/2000/svg" xmlns:xlink="http://www.w3.org/1999/xlink" x="0px"
	 y="0px" viewBox="0 0 424.84 424.84" style="enable-background:new 0 0 424.84 424.84;" xml:space="preserve">
<title>工作區域 3 複本 10</title>
<circle style="fill:none;stroke:#FFFFFF;stroke-width:10;stroke-miterlimit:10;" cx="212.42" cy="212.42" r="202.62"/>
<circle style="fill:none;stroke:#FFFFFF;stroke-width:7;stroke-linecap:round;stroke-linejoin:round;" cx="99.5" cy="166.42" r="50.02"/>
<circle style="fill:none;stroke:#FFFFFF;stroke-width:7;stroke-linecap:round;stroke-linejoin:round;" cx="142.79" cy="304.63" r="50.02"/>
<path style="fill:none;stroke:#FFFFFF;stroke-width:7;stroke-linecap:round;stroke-linejoin:round;" d="M340.63,135.59v150.56
	c-0.024,3.004-2.478,5.421-5.482,5.397c-1.33-0.01-2.609-0.507-3.598-1.397l-93.81-84.52c-2.452-2.211-3.851-5.358-3.85-8.66V46.67
	c0.024-3.004,2.478-5.421,5.482-5.397c1.33,0.01,2.609,0.507,3.598,1.397l93.8,84.29C339.217,129.163,340.62,132.297,340.63,135.59z
	"/>
<line style="fill:none;stroke:#4EB563;stroke-width:5;stroke-linecap:round;stroke-linejoin:round;" x1="249.45" y1="107.91" x2="260.45" y2="117.79"/>
<line style="fill:none;stroke:#4EB563;stroke-width:5;stroke-linecap:round;stroke-linejoin:round;" x1="254.95" y1="121.72" x2="254.95" y2="103.98"/>
<line style="fill:none;stroke:#4EB563;stroke-width:5;stroke-linecap:round;stroke-linejoin:round;" x1="189.3" y1="155.89" x2="200.3" y2="165.77"/>
<line style="fill:none;stroke:#4EB563;stroke-width:5;stroke-linecap:round;stroke-linejoin:round;" x1="194.8" y1="169.71" x2="194.8" y2="151.96"/>
<line style="fill:none;stroke:#4EB563;stroke-width:5;stroke-linecap:round;stroke-linejoin:round;" x1="315.66" y1="134.44" x2="326.66" y2="144.32"/>
<line style="fill:none;stroke:#4EB563;stroke-width:5;stroke-linecap:round;stroke-linejoin:round;" x1="321.16" y1="148.25" x2="321.16" y2="130.5"/>
<line style="fill:none;stroke:#4EB563;stroke-width:5;stroke-linecap:round;stroke-linejoin:round;" x1="295.85" y1="224.57" x2="306.85" y2="234.46"/>
<line style="fill:none;stroke:#4EB563;stroke-width:5;stroke-linecap:round;stroke-linejoin:round;" x1="301.35" y1="238.39" x2="301.35" y2="220.64"/>
<line style="fill:none;stroke:#4EB563;stroke-width:5;stroke-linecap:round;stroke-linejoin:round;" x1="238.37" y1="274.1" x2="249.36" y2="283.99"/>
<line style="fill:none;stroke:#4EB563;stroke-width:5;stroke-linecap:round;stroke-linejoin:round;" x1="243.87" y1="287.92" x2="243.87" y2="270.17"/>
<line style="fill:none;stroke:#4EB563;stroke-width:5;stroke-linecap:round;stroke-linejoin:round;" x1="170.73" y1="229.52" x2="181.73" y2="239.4"/>
<line style="fill:none;stroke:#4EB563;stroke-width:5;stroke-linecap:round;stroke-linejoin:round;" x1="176.23" y1="243.33" x2="176.23" y2="225.58"/>
<circle style="fill:#FFFFFF;" cx="130.43" cy="151.96" r="4.22"/>
<circle style="fill:#FFFFFF;" cx="176.23" cy="290.02" r="4.22"/>
<polygon style="fill:none;stroke:#4EB563;stroke-width:5;stroke-linecap:round;stroke-miterlimit:10;" points="287.26,143.66 
	254.95,172.78 287.26,201.89 319.57,172.78 "/>
<line style="fill:none;stroke:#4EB563;stroke-width:5;stroke-linecap:round;stroke-miterlimit:10;" x1="287.26" y1="143.66" x2="287.26" y2="201.89"/>
<line style="fill:none;stroke:#FFFFFF;stroke-width:7;stroke-linecap:round;stroke-linejoin:round;" x1="92.77" y1="48.9" x2="212.42" y2="49.1"/>
<line style="fill:none;stroke:#FFFFFF;stroke-width:7;stroke-linecap:round;stroke-linejoin:round;" x1="333.42" y1="309" x2="260.45" y2="409.31"/>
</svg>
