<svg id="圖層_1" data-name="圖層 1" xmlns="http://www.w3.org/2000/svg" viewBox="0 0 1147 1147"><defs><style>.cls-1{fill:none;stroke:#000;stroke-miterlimit:10;stroke-width:35px;}</style></defs><title>icon</title><path d="M337.53,958.72c11.94-34,23.49-66.95,35-99.86,23.33-66.47,47-132.84,69.79-199.47,5-14.59,6.18-30.46,10.89-45.18,27.66-86.51,87-141.94,171.92-170.11,82.76-27.44,164.6-21.6,243.68,14.28,24.82,11.26,47.52,27.19,72.52,41.75l115.06-98.74,23.37,27.18L941.35,547.53c-3.12-2.53-6.12-4.84-9-7.31C866.14,482.93,789.41,454.5,702,462.3c-93,8.29-165.33,51.14-206.73,137.65-27.12,56.68-25.76,115.15-1.37,172.1,33.46,78.09,90,131.28,175.26,147.91,67,13.06,128.15-.67,178.07-49.71,42.57-41.83,56.58-93.16,41.27-150.53C872.9,661.36,839.2,617,779.6,597.31c-35.67-11.8-71.13-8.77-104.41,8.48C639.88,624.1,621,654.3,620.44,694s18,70.53,51.31,92a54.1,54.1,0,0,0,42.14,7.62c17.71-3.94,29.1-14.93,34.17-32,5-16.75,1.9-31.91-11.38-44.26-8-7.39-8.64-15.3-2.2-22.66,7.25-8.29,16.9-9,25.31-1.76,31.43,26.9,33.12,79.73,3.53,110.3-24,24.82-64.51,32.75-98.93,18-11.07-4.73-22.1-11.28-30.82-19.47-76.69-72.05-58.24-191.27,34.48-230.37,60.68-25.59,120.43-18.75,173.24,20.68,60.59,45.24,90.21,107.58,86.16,183.5-3,56.8-31.23,101.06-75.48,135.88-39,30.67-83,46.91-132.58,47q-187.95.43-375.9.21Zm243.35-34.31c-66.67-42.59-109.93-100.95-131.66-178.17L388,924.41Z" transform="translate(-135.16 -106.56)"/><circle class="cls-1" cx="573.5" cy="573.5" r="556"/></svg>