<svg id="圖層_1" data-name="圖層 1" xmlns="http://www.w3.org/2000/svg" viewBox="0 0 1417.32 1417.32"><defs><style>.cls-1{fill:#888;}</style></defs><title>line</title><path class="cls-1" d="M491.7,741.82,464.45,693a9.49,9.49,0,0,0-16.57,0l-27.25,48.78a9.49,9.49,0,0,0,8.28,14.11h54.49A9.49,9.49,0,0,0,491.7,741.82Z"/><path class="cls-1" d="M581.2,741.82,553.95,693a9.49,9.49,0,0,0-16.57,0l-27.25,48.78a9.49,9.49,0,0,0,8.28,14.11h54.49A9.49,9.49,0,0,0,581.2,741.82Z"/><path class="cls-1" d="M670.7,741.82,643.45,693a9.49,9.49,0,0,0-16.57,0l-27.25,48.78a9.49,9.49,0,0,0,8.28,14.11h54.49A9.49,9.49,0,0,0,670.7,741.82Z"/><path class="cls-1" d="M760.2,741.82,732.95,693a9.49,9.49,0,0,0-16.57,0l-27.25,48.78a9.49,9.49,0,0,0,8.28,14.11h54.49A9.49,9.49,0,0,0,760.2,741.82Z"/><path class="cls-1" d="M849.7,741.82,822.45,693a9.49,9.49,0,0,0-16.57,0l-27.25,48.78a9.49,9.49,0,0,0,8.28,14.11h54.49A9.49,9.49,0,0,0,849.7,741.82Z"/><path class="cls-1" d="M939.2,741.82,911.95,693a9.49,9.49,0,0,0-16.57,0l-27.25,48.78a9.49,9.49,0,0,0,8.28,14.11h54.49A9.49,9.49,0,0,0,939.2,741.82Z"/><path class="cls-1" d="M1028.7,741.82,1001.45,693a9.49,9.49,0,0,0-16.57,0l-27.25,48.78a9.49,9.49,0,0,0,8.28,14.11h54.49A9.49,9.49,0,0,0,1028.7,741.82Z"/></svg>