<?xml version="1.0" encoding="utf-8"?>
<!-- Generator: Adobe Illustrator 26.3.1, SVG Export Plug-In . SVG Version: 6.00 Build 0)  -->
<svg version="1.1" id="圖層_1" xmlns="http://www.w3.org/2000/svg" xmlns:xlink="http://www.w3.org/1999/xlink" x="0px" y="0px"
	 viewBox="0 0 300 300" style="enable-background:new 0 0 300 300;" xml:space="preserve">
<style type="text/css">
	.st0{fill:#424243;}
	.st1{fill:#CED1D4;}
	.st2{fill:#5B7B73;}
</style>
<g>
	<g>
		<path class="st0" d="M122.29,183.93h-0.91v-7.1h2.21c1.65,0,2.29,0.9,2.29,1.93c0,1.5-1.06,2.11-2.06,2.11h-1.53V183.93z
			 M123.54,180.06c0.9,0,1.38-0.41,1.38-1.23c0-0.97-0.63-1.19-1.38-1.19h-1.25v2.41H123.54z"/>
		<path class="st0" d="M130.18,182l-0.67,2.11l-0.9-0.33l2.23-6.95h1.17l2.23,6.95l-0.9,0.33L132.7,182H130.18z M131.43,177.9
			l-1.01,3.28h2.02L131.43,177.9z"/>
		<path class="st0" d="M139.17,177.65h-1.96v-0.82h4.8v0.82h-1.92v6.28h-0.91V177.65z"/>
		<path class="st0" d="M146.33,183.11h0.99v-5.46h-0.99v-0.82h2.92v0.82h-1.01v5.46h1.01v0.82h-2.92V183.11z"/>
		<path class="st0" d="M154.47,181.68c0.18,0.87,0.6,1.51,1.55,1.51c0.75,0,1.34-0.41,1.34-1.2c0-0.87-0.74-1.09-1.43-1.38
			c-1.04-0.44-2.02-0.71-2.02-2.04c0-1.2,0.97-1.87,2.08-1.87c1.19,0,1.88,0.68,2.17,1.78l-0.87,0.26c-0.16-0.7-0.53-1.19-1.31-1.19
			c-0.59,0-1.16,0.3-1.16,0.94c0,0.67,0.41,0.86,0.95,1.1l1.51,0.67c0.64,0.35,0.98,0.93,0.98,1.66c0,1.35-0.94,2.11-2.25,2.11
			c-1.32,0-2.15-0.84-2.37-2.11L154.47,181.68z"/>
		<path class="st0" d="M162.65,181.68c0.18,0.87,0.6,1.51,1.55,1.51c0.75,0,1.34-0.41,1.34-1.2c0-0.87-0.74-1.09-1.43-1.38
			c-1.04-0.44-2.02-0.71-2.02-2.04c0-1.2,0.97-1.87,2.08-1.87c1.19,0,1.88,0.68,2.17,1.78l-0.87,0.26c-0.16-0.7-0.53-1.19-1.31-1.19
			c-0.59,0-1.16,0.3-1.16,0.94c0,0.67,0.41,0.86,0.95,1.1l1.51,0.67c0.64,0.35,0.98,0.93,0.98,1.66c0,1.35-0.94,2.11-2.25,2.11
			c-1.32,0-2.15-0.84-2.37-2.11L162.65,181.68z"/>
		<path class="st0" d="M170.36,176.83h4.43v0.82h-3.52v2.13h2.9v0.82h-2.9v2.52h3.52v0.82h-4.43V176.83z"/>
		<path class="st0" d="M178.43,176.83h2.41c1.19,0,2.13,0.56,2.13,1.93c0,0.87-0.59,1.73-1.44,1.99l1.74,2.88l-0.79,0.48l-1.81-3.22
			h-1.32v3.04h-0.91V176.83z M180.54,180.08c0.89,0,1.47-0.5,1.47-1.31c0-0.64-0.38-1.12-1.2-1.12h-1.47v2.43H180.54z"/>
		<path class="st0" d="M187.2,183.11h0.99v-5.46h-0.99v-0.82h2.92v0.82h-1.01v5.46h1.01v0.82h-2.92V183.11z"/>
		<path class="st0" d="M194.89,176.83h4.43v0.82h-3.52v2.13h2.9v0.82h-2.9v2.52h3.52v0.82h-4.43V176.83z"/>
	</g>
	<g>
		<g>
			<path class="st0" d="M157.12,139.42c-4.23,0-7.67-5.28-7.67-11.77c0-6.49,3.44-11.77,7.67-11.77c4.23,0,7.67,5.28,7.67,11.77
				C164.79,134.15,161.35,139.42,157.12,139.42z M157.12,116.34c-3.98,0-7.22,5.08-7.22,11.32c0,6.24,3.24,11.32,7.22,11.32
				s7.22-5.08,7.22-11.32C164.34,121.42,161.1,116.34,157.12,116.34z"/>
		</g>
		<g>
			<path class="st0" d="M157.12,139.42c-4.23,0-7.67-5.28-7.67-11.77c0-6.49,3.44-11.77,7.67-11.77c4.23,0,7.67,5.28,7.67,11.77
				C164.79,134.15,161.35,139.42,157.12,139.42z M157.12,116.34c-3.98,0-7.22,5.08-7.22,11.32c0,6.24,3.24,11.32,7.22,11.32
				s7.22-5.08,7.22-11.32C164.34,121.42,161.1,116.34,157.12,116.34z"/>
		</g>
		<path class="st0" d="M157.7,120.95c-0.1,0.01-0.2,0.11-0.27,0.18c-0.04,0.04-0.07,0.07-0.11,0.11l0,0
			c-0.33,0.33-0.87,0.45-1.22,0.49c-0.1,0.01-0.21,0.02-0.32,0.03h0h0c-0.26,0.02-0.53,0.02-0.79,0.02c-0.01,0-0.01,0-0.02,0
			c-0.23,0-0.46,0-0.69,0c0,0-0.01,0-0.01,0v0l0,0v0v0.03v0v0.17h0.02h0.29h0.04h0v0c0.08,0,0.16,0,0.23,0c0.02,0,0.05,0,0.07,0
			c0.1,0,0.2,0,0.3-0.01c0.09,0,1.93,0.01,2.77-0.48c0.12-0.07,0.4-0.27,0.42-0.54H157.7z"/>
		<path class="st0" d="M161.4,129.98c0-2.36-2.55-2.98-2.55-2.98c1.68-1.83,0.71-3.16,0.09-3.73c-0.25-0.23-0.57-0.37-0.91-0.37
			c0,0,0,0-0.01,0c-1.25,0-2.49,0-3.74,0l0,0c0,0,0,0-0.01,0v10.36c0.74,0,1.49,0,2.23,0c0.74,0,1.49,0,2.24,0
			c0.26-0.01,0.6-0.14,0.87-0.27c0.28-0.13,0.54-0.31,0.76-0.53C161.45,131.34,161.4,129.98,161.4,129.98z M158.56,123.48
			c0.07,0.15,0.11,0.31,0.14,0.48c0.14,0.79,0.09,1.57-0.18,2.33c-0.09,0.24-0.21,0.46-0.38,0.66c-0.17,0.16-0.39,0.23-0.39,0.23
			l0,0c-0.9,0.23-1.79,0.83-2.24,1.16l0,0c-0.1,0.07-0.17,0.1-0.21,0.1c-0.04,0-0.05-0.02-0.06-0.04c0-0.01,0-0.01,0-0.02v-0.48
			c0-0.03-0.01-0.07-0.01-0.1c0-0.46,0-0.92,0-1.38c0-0.2,0-0.41,0-0.61c0.01-0.63-0.03-1.27,0-1.9c0-0.07,0.01-0.15,0.02-0.22
			c0.02-0.12,0.05-0.22,0.09-0.31c0,0,0,0,0-0.01c0-0.01,0.01-0.01,0.01-0.02c0.03-0.04,0.09-0.12,0.22-0.2
			c0.07-0.03,0.17-0.06,0.29-0.06h2.04C157.9,123.09,158.36,123.1,158.56,123.48z M155.49,132.97c-0.06-0.03-0.1-0.07-0.13-0.1
			c-0.08-0.11-0.13-0.25-0.13-0.4c0-0.62,0-1.24,0-1.86c0,0,0,0-0.01,0c0-0.52,0-1.05,0-1.57c0.02-0.18,0.15-0.31,0.19-0.35
			c0.44-0.34,1.58-1.17,2.48-1.36c0.11-0.02,0.21-0.03,0.32-0.03c0.18,0,0.36,0.03,0.54,0.07c0.37,0.1,0.65,0.33,0.86,0.64
			c0.28,0.42,0.4,0.91,0.43,1.41c0.04,0.65-0.06,1.3-0.29,1.91c-0.22,0.58-0.54,1.09-1.03,1.45c-0.1,0.07-0.23,0.14-0.37,0.19
			c-0.21,0.06-0.4,0.07-0.45,0.07h-1.86C155.76,133.06,155.59,133.01,155.49,132.97z"/>
	</g>
	<path class="st0" d="M46.75,163.58l-0.36-0.09l-0.22-0.04c-0.01,0-0.02,0-0.03,0c-0.05,0-0.1,0.03-0.12,0.08
		c-0.23,0.57-0.5,1.03-0.82,1.35c-0.32,0.33-0.66,0.58-0.99,0.74c-0.33,0.17-0.65,0.27-0.95,0.32c-0.3,0.05-0.53,0.07-0.68,0.07
		h-6.42v-14.83c0-0.51,0.1-0.89,0.3-1.12c0.19-0.22,0.48-0.33,0.86-0.33c0.07,0,0.13-0.06,0.13-0.13v-0.39
		c0-0.07-0.06-0.13-0.13-0.13h-3.91c-0.07,0-0.13,0.06-0.13,0.13v0.39c0,0.07,0.06,0.13,0.13,0.13h0.2c0.29,0,0.52,0.12,0.69,0.37
		c0.18,0.26,0.27,0.62,0.27,1.08v13.32c0,0.51-0.1,0.89-0.3,1.12c-0.19,0.23-0.48,0.33-0.86,0.33c-0.07,0-0.13,0.06-0.13,0.13v0.39
		c0,0.07,0.06,0.13,0.13,0.13h12.7c0.06,0,0.11-0.04,0.12-0.1c0.03-0.12,0.07-0.33,0.13-0.63c0.06-0.3,0.12-0.61,0.2-0.93
		c0.07-0.37,0.16-0.77,0.26-1.2C46.86,163.67,46.82,163.6,46.75,163.58z"/>
	<path class="st0" d="M88.08,151.91c0.65-0.71,1.45-1.26,2.37-1.65c0.92-0.39,1.95-0.58,3.06-0.58c0.04,0,1.05,0.05,1.36,0.06
		c0.31,0.01,0.59,0.03,0.83,0.06c0.22,0.02,0.29,0.04,0.32,0.05c0.01,0.01,0.03,0.01,0.05,0.02c0.78,0.12,1.51,0.43,2.18,0.91
		c0.67,0.48,1.18,1.07,1.52,1.76l0.15,0.34c0.06,0.13,0.12,0.25,0.18,0.35c0.02,0.04,0.07,0.06,0.11,0.06h0.44
		c0.04,0,0.07-0.01,0.09-0.04c0.02-0.03,0.04-0.06,0.04-0.09l-0.11-2.4c0-0.04-0.03-0.08-0.07-0.1c-0.43-0.23-0.92-0.44-1.46-0.64
		c-0.55-0.19-1.13-0.36-1.74-0.49c-0.61-0.13-1.26-0.24-1.92-0.31c-0.66-0.07-1.33-0.11-1.97-0.11c-1.38,0-2.65,0.21-3.77,0.62
		c-1.13,0.42-2.1,1.02-2.91,1.78c-0.8,0.77-1.43,1.7-1.87,2.76c-0.44,1.07-0.66,2.27-0.66,3.56c0,1.31,0.22,2.52,0.66,3.59
		c0.44,1.07,1.07,2,1.87,2.76c0.8,0.77,1.78,1.37,2.91,1.78c1.12,0.41,2.39,0.62,3.77,0.62c0.64,0,1.3-0.04,1.97-0.11
		c0.66-0.07,1.31-0.18,1.92-0.31c0.61-0.13,1.19-0.3,1.74-0.49c0.54-0.19,1.03-0.41,1.46-0.64c0.04-0.02,0.06-0.06,0.07-0.1
		l0.11-2.4c0-0.03-0.01-0.07-0.04-0.09c-0.02-0.02-0.06-0.04-0.09-0.04h-0.44c-0.05,0-0.09,0.02-0.11,0.06
		c-0.06,0.1-0.12,0.22-0.18,0.35l-0.15,0.34c-0.35,0.72-0.94,1.35-1.76,1.85c-0.82,0.5-1.76,0.82-2.78,0.93
		c-0.29,0.03-0.57,0.05-0.86,0.06c-0.28,0.01-0.57,0.02-0.86,0.02c-1.11,0-2.14-0.2-3.06-0.58c-0.92-0.39-1.72-0.95-2.37-1.66
		c-0.66-0.72-1.17-1.59-1.52-2.58c-0.36-1-0.54-2.13-0.54-3.36c0-1.23,0.18-2.36,0.54-3.36C86.91,153.48,87.43,152.61,88.08,151.91z
		"/>
	<path class="st0" d="M157.72,151.53c-0.79-0.76-1.75-1.36-2.86-1.77c-1.11-0.41-2.36-0.62-3.72-0.62h-6.99
		c-0.07,0-0.13,0.06-0.13,0.13v0.39c0,0.07,0.06,0.13,0.13,0.13h0.2c0.29,0,0.52,0.12,0.7,0.37c0.19,0.26,0.28,0.62,0.28,1.08v13.29
		c0,0.51-0.1,0.88-0.31,1.1c-0.2,0.22-0.49,0.32-0.88,0.32c-0.07,0-0.13,0.06-0.13,0.13v0.41c0,0.07,0.06,0.13,0.13,0.13h8.23
		c1.16,0,2.24-0.21,3.21-0.64c0.97-0.42,1.8-1.02,2.48-1.78c0.68-0.76,1.21-1.69,1.59-2.76c0.37-1.07,0.56-2.27,0.56-3.57
		c0-1.3-0.22-2.5-0.65-3.56C159.13,153.22,158.51,152.29,157.72,151.53z M158.2,161.21c-0.3,1-0.73,1.86-1.28,2.57
		c-0.55,0.71-1.21,1.26-1.98,1.64c-0.76,0.38-1.63,0.58-2.56,0.58h-5.48v-16.29h4.24c1.13,0,2.16,0.2,3.08,0.58
		c0.92,0.39,1.71,0.94,2.37,1.65c0.65,0.71,1.17,1.57,1.52,2.57c0.36,1,0.54,2.12,0.54,3.33
		C158.65,159.08,158.5,160.21,158.2,161.21z"/>
	<path class="st0" d="M282.03,158.58c-1.27-1.6-3.35-2.36-5.22-3.01c-1.01-0.35-2.05-0.63-3.05-1.02c-0.79-0.31-1.86-0.7-2.33-1.45
		c-0.41-0.65-0.19-1.61,0.27-2.17c0.5-0.63,1.28-0.93,2.04-1.09c1.65-0.33,3.78-0.32,5.25,0.6c0.75,0.47,1.15,1.18,1.48,1.97
		c0.11,0.26,0.2,0.64,0.47,0.75c0.08,0.03,0.42,0.03,0.5-0.04c0.15-0.15,0.01-0.8,0.01-0.98c-0.02-0.45,0-0.92-0.05-1.38
		c-0.06-0.54-0.49-0.61-1.01-0.81c-0.73-0.28-1.5-0.48-2.27-0.62c-1.8-0.33-3.8-0.4-5.54,0.26c-1.49,0.56-2.67,1.83-2.51,3.52
		c0.16,1.72,2.22,2.52,3.61,3.05c1.77,0.67,3.64,1.18,5.33,2.05c1.47,0.76,2.88,1.93,2.87,3.72c-0.01,1.89-1.67,3.35-3.35,3.91
		c-0.9,0.3-1.83,0.3-2.76,0.26c-0.95-0.04-1.94-0.09-2.83-0.44c-0.83-0.33-1.6-0.88-2.13-1.6c-0.23-0.31-0.43-1.05-0.73-1.29
		c-0.23-0.19-0.59-0.14-0.69,0.11c-0.09,0.25,0.03,0.8,0.04,1.06c0.01,0.37-0.08,0.96,0.05,1.31c0.17,0.46,1.15,0.65,1.6,0.78
		c1.84,0.53,3.81,0.68,5.72,0.68c2.04,0,4.08-0.94,5.3-2.6C283.3,162.43,283.33,160.22,282.03,158.58z"/>
	<path class="st0" d="M214.29,163.58l-0.36-0.09l-0.22-0.04c-0.01,0-0.02,0-0.03,0c-0.05,0-0.1,0.03-0.12,0.08
		c-0.23,0.57-0.5,1.03-0.82,1.35c-0.32,0.33-0.66,0.58-0.99,0.74c-0.33,0.17-0.65,0.27-0.95,0.32c-0.3,0.05-0.53,0.07-0.68,0.07
		h-6.42v-14.83c0-0.51,0.1-0.89,0.3-1.12c0.19-0.22,0.48-0.33,0.86-0.33c0.07,0,0.13-0.06,0.13-0.13v-0.39
		c0-0.07-0.06-0.13-0.13-0.13h-3.91c-0.07,0-0.13,0.06-0.13,0.13v0.39c0,0.07,0.06,0.13,0.13,0.13h0.2c0.29,0,0.52,0.12,0.69,0.37
		c0.18,0.26,0.27,0.62,0.27,1.08v13.32c0,0.51-0.1,0.89-0.3,1.12c-0.19,0.23-0.48,0.33-0.86,0.33c-0.07,0-0.13,0.06-0.13,0.13v0.39
		c0,0.07,0.06,0.13,0.13,0.13h12.7c0.06,0,0.11-0.04,0.12-0.1c0.03-0.12,0.07-0.33,0.13-0.63c0.06-0.3,0.12-0.61,0.2-0.93
		c0.07-0.37,0.16-0.77,0.26-1.2C214.4,163.67,214.35,163.6,214.29,163.58z"/>
	<path class="st0" d="M255.43,151.91c0.65-0.71,1.45-1.26,2.37-1.65c0.92-0.39,1.95-0.58,3.06-0.58c0.04,0,1.05,0.05,1.36,0.06
		c0.31,0.01,0.59,0.03,0.83,0.06c0.22,0.02,0.29,0.04,0.32,0.05c0.01,0.01,0.03,0.01,0.05,0.02c0.78,0.12,1.51,0.43,2.18,0.91
		c0.67,0.48,1.18,1.07,1.52,1.76l0.15,0.34c0.06,0.13,0.12,0.25,0.18,0.35c0.02,0.04,0.07,0.06,0.11,0.06H268
		c0.04,0,0.07-0.01,0.09-0.04c0.02-0.03,0.04-0.06,0.04-0.09l-0.11-2.4c0-0.04-0.03-0.08-0.07-0.1c-0.43-0.23-0.92-0.44-1.46-0.64
		c-0.55-0.19-1.13-0.36-1.74-0.49c-0.61-0.13-1.26-0.24-1.92-0.31c-0.66-0.07-1.33-0.11-1.97-0.11c-1.38,0-2.65,0.21-3.77,0.62
		c-1.13,0.42-2.1,1.02-2.91,1.78c-0.8,0.77-1.43,1.7-1.87,2.76c-0.44,1.07-0.66,2.27-0.66,3.56c0,1.31,0.22,2.52,0.66,3.59
		c0.44,1.07,1.07,2,1.87,2.76c0.8,0.77,1.78,1.37,2.91,1.78c1.12,0.41,2.39,0.62,3.77,0.62c0.64,0,1.3-0.04,1.97-0.11
		c0.66-0.07,1.31-0.18,1.92-0.31c0.61-0.13,1.19-0.3,1.74-0.49c0.54-0.19,1.03-0.41,1.46-0.64c0.04-0.02,0.06-0.06,0.07-0.1
		l0.11-2.4c0-0.03-0.01-0.07-0.04-0.09c-0.02-0.02-0.06-0.04-0.09-0.04h-0.44c-0.05,0-0.09,0.02-0.11,0.06
		c-0.06,0.1-0.12,0.22-0.18,0.35l-0.15,0.34c-0.35,0.72-0.94,1.35-1.76,1.85c-0.82,0.5-1.76,0.82-2.78,0.93
		c-0.29,0.03-0.57,0.05-0.86,0.06c-0.28,0.01-0.57,0.02-0.86,0.02c-1.11,0-2.14-0.2-3.06-0.58c-0.92-0.39-1.72-0.95-2.37-1.66
		c-0.66-0.72-1.17-1.59-1.52-2.58c-0.36-1-0.54-2.13-0.54-3.36c0-1.23,0.18-2.36,0.54-3.36
		C254.26,153.48,254.78,152.61,255.43,151.91z"/>
	<path class="st0" d="M119.05,149.11h-3.93c-0.07,0-0.13,0.06-0.13,0.13v0.41c0,0.07,0.06,0.13,0.13,0.13
		c0.39,0,0.67,0.11,0.88,0.33c0.2,0.23,0.31,0.6,0.31,1.11v4.77h-1.31c-3.08,0-8.3,1.33-10.22,4.43v-3.01v-2.09v-1.18
		c0-0.01-0.01-0.01-0.01-0.02l0.01-2.9c0-0.46,0.09-0.82,0.27-1.08c0.17-0.25,0.4-0.36,0.69-0.36h0.22c0.07,0,0.13-0.06,0.13-0.13
		v-0.41c0-0.07-0.06-0.13-0.13-0.13h-3.93c-0.07,0-0.13,0.06-0.13,0.13v0.41c0,0.07,0.06,0.13,0.13,0.13c0.39,0,0.67,0.11,0.86,0.33
		c0.2,0.23,0.3,0.6,0.3,1.11v13.26c0,0.46-0.09,0.82-0.27,1.08c-0.17,0.25-0.4,0.36-0.69,0.36h-0.2c-0.07,0-0.13,0.06-0.13,0.13
		v0.41c0,0.07,0.06,0.13,0.13,0.13h3.93c0.07,0,0.13-0.06,0.13-0.13v-0.41c0-0.07-0.06-0.13-0.13-0.13c-0.39,0-0.67-0.11-0.88-0.33
		c-0.2-0.23-0.31-0.6-0.31-1.11v-2.37c0.83-3.81,6.98-5.47,10.22-5.47h1.31v2.57v1.09c0,0.01,0.01,0.01,0.01,0.02l-0.01,4.17
		c0,0.46-0.09,0.82-0.27,1.08c-0.17,0.25-0.4,0.36-0.69,0.36h-0.22c-0.07,0-0.13,0.06-0.13,0.13v0.41c0,0.07,0.06,0.13,0.13,0.13
		h3.93c0.07,0,0.13-0.06,0.13-0.13v-0.41c0-0.07-0.06-0.13-0.13-0.13c-0.39,0-0.67-0.11-0.86-0.33c-0.2-0.23-0.3-0.6-0.3-1.11
		v-13.26c0-0.46,0.09-0.82,0.27-1.08c0.17-0.25,0.4-0.36,0.69-0.36h0.2c0.07,0,0.13-0.06,0.13-0.13v-0.41
		C119.18,149.17,119.12,149.11,119.05,149.11z"/>
	<path class="st0" d="M174.9,163.72h-0.33c-0.04,0-0.08,0.02-0.1,0.05l-0.27,0.35c-0.38,0.58-0.9,1.05-1.56,1.39
		c-0.65,0.34-1.35,0.51-2.07,0.51h-6.27v-7.24c0.66-1.49,3.75-2.23,5.58-2.23h0.28c0.4,0.05,0.76,0.15,1.07,0.31
		c0.43,0.22,0.71,0.51,0.84,0.87l0.09,0.22c0.02,0.05,0.07,0.08,0.12,0.08h0.35c0.07,0,0.13-0.06,0.13-0.13v-3.18
		c0-0.07-0.06-0.13-0.13-0.13h-0.35c-0.05,0-0.1,0.03-0.12,0.08l-0.09,0.21c-0.1,0.3-0.37,0.55-0.8,0.74
		c-0.4,0.17-0.9,0.27-1.45,0.28c-1.63,0.01-4.22,0.56-5.51,1.8v-1.15v-0.58v-0.83v-5.43h6.07c0.72,0,1.39,0.17,1.99,0.51
		c0.6,0.34,1.04,0.8,1.32,1.37l0.15,0.36c0.02,0.05,0.07,0.08,0.12,0.08h0.35c0.03,0,0.07-0.01,0.09-0.04
		c0.02-0.02,0.04-0.06,0.04-0.09c-0.01-0.42-0.04-0.86-0.07-1.33c-0.03-0.46-0.04-0.9-0.04-1.31c0-0.07-0.06-0.13-0.13-0.13h-12.64
		c-0.07,0-0.13,0.06-0.13,0.13v0.41c0,0.07,0.06,0.13,0.13,0.13h0.2c0.29,0,0.52,0.12,0.7,0.37c0.19,0.26,0.28,0.61,0.28,1.06v13.29
		c0,0.51-0.1,0.88-0.31,1.1c-0.2,0.22-0.49,0.32-0.88,0.32c-0.07,0-0.13,0.06-0.13,0.13v0.41c0,0.07,0.06,0.13,0.13,0.13h12.8
		c0.06,0,0.11-0.04,0.12-0.1c0.02-0.06,0.07-0.33,0.18-0.82c0.1-0.49,0.23-1.09,0.37-1.81c0.01-0.04,0-0.08-0.03-0.11
		C174.98,163.73,174.94,163.72,174.9,163.72z"/>
	<path class="st0" d="M133.89,163.68h-0.33c-0.04,0-0.08,0.02-0.1,0.05l-0.27,0.35c-0.38,0.58-0.9,1.05-1.56,1.39
		c-0.65,0.34-1.35,0.51-2.07,0.51h-6.27v-7.24c0.66-1.49,3.75-2.23,5.58-2.23h0.28c0.4,0.05,0.76,0.15,1.07,0.31
		c0.43,0.22,0.71,0.51,0.85,0.87l0.09,0.22c0.02,0.05,0.07,0.08,0.12,0.08h0.35c0.07,0,0.13-0.06,0.13-0.13v-3.18
		c0-0.07-0.06-0.13-0.13-0.13h-0.35c-0.05,0-0.1,0.03-0.12,0.08l-0.09,0.21c-0.1,0.3-0.37,0.55-0.8,0.74
		c-0.4,0.17-0.9,0.27-1.46,0.28c-1.63,0.01-4.22,0.56-5.51,1.8v-1.15v-0.58v-0.83v-5.43h6.07c0.72,0,1.39,0.17,1.99,0.51
		c0.6,0.34,1.04,0.8,1.32,1.37l0.15,0.36c0.02,0.05,0.07,0.08,0.12,0.08h0.35c0.03,0,0.07-0.01,0.09-0.04
		c0.02-0.02,0.04-0.06,0.04-0.09c-0.01-0.42-0.04-0.86-0.07-1.33c-0.03-0.46-0.04-0.9-0.04-1.31c0-0.07-0.06-0.13-0.13-0.13h-12.64
		c-0.07,0-0.13,0.06-0.13,0.13v0.41c0,0.07,0.06,0.13,0.13,0.13h0.2c0.29,0,0.52,0.12,0.7,0.37c0.19,0.26,0.28,0.61,0.28,1.06v13.29
		c0,0.51-0.1,0.88-0.31,1.1c-0.2,0.22-0.49,0.32-0.88,0.32c-0.07,0-0.13,0.06-0.13,0.13v0.41c0,0.07,0.06,0.13,0.13,0.13h12.8
		c0.06,0,0.11-0.04,0.12-0.1c0.02-0.06,0.07-0.33,0.18-0.82c0.1-0.49,0.23-1.09,0.37-1.81c0.01-0.04,0-0.08-0.03-0.11
		C133.96,163.7,133.92,163.68,133.89,163.68z"/>
	<path class="st0" d="M232.3,165.96c-0.36,0-0.67-0.12-0.94-0.37c-0.28-0.26-0.53-0.62-0.73-1.08l-6.66-15.3
		c-0.02-0.05-0.07-0.08-0.12-0.08h-0.41c-0.05,0-0.1,0.03-0.12,0.08l-6.4,15.42c-0.21,0.47-0.45,0.81-0.71,1.03
		c-0.25,0.21-0.56,0.31-0.94,0.31c-0.07,0-0.13,0.06-0.13,0.13v0.39c0,0.07,0.06,0.13,0.13,0.13h3.49c0.07,0,0.13-0.06,0.13-0.13
		v-0.39c0-0.07-0.06-0.13-0.13-0.13h-0.26c-0.4,0-0.67-0.15-0.82-0.46c-0.11-0.24,0.51-2.14,0.91-3.19
		c1.14-1.03,2.81-2.13,5.14-2.62c0.63-0.13,2.43-0.35,3.19,0.17c0.07,0.05,0.13,0.1,0.17,0.16l0.32,0.73l0.27,0.63l0,0
		c0.05,0.11,0.13,0.28,0.24,0.53c0.14,0.31,0.28,0.66,0.44,1.02c0.15,0.37,0.3,0.71,0.44,1.03c0.14,0.33,0.23,0.53,0.27,0.61
		c0.19,0.42,0.22,0.76,0.09,1.01c-0.12,0.24-0.36,0.36-0.71,0.36h-0.26c-0.07,0-0.13,0.06-0.13,0.13v0.41
		c0,0.07,0.06,0.13,0.13,0.13h4.13c0.07,0,0.13-0.06,0.13-0.13v-0.41C232.43,166.01,232.37,165.96,232.3,165.96z M223.58,159.07
		c-1.9,0.4-3.38,1.17-4.51,2.01l0.03-0.07c0.07-0.18,0.15-0.36,0.23-0.55c0.08-0.19,0.15-0.37,0.22-0.53c0-0.01,0.01-0.02,0.01-0.03
		l0.1-0.23l0.28-0.68c0,0,0,0,0,0l3.26-7.85l3.47,7.93C225.43,158.7,223.67,159.05,223.58,159.07z"/>
	<path class="st0" d="M250.3,149.14h-3.93c-0.07,0-0.13,0.06-0.13,0.13v0.41c0,0.07,0.06,0.13,0.13,0.13c0.39,0,0.67,0.11,0.88,0.33
		c0.2,0.23,0.31,0.6,0.31,1.11v4.85v3.13v1.09c0,0.01,0.01,0.01,0.01,0.02l0,1.5c-1.09-3.37-3.13-7.94-6.76-10.95
		c-0.07-0.05-1.02-0.82-2.15-1.32c-0.08-0.03-0.16-0.07-0.24-0.1c-0.03-0.01-0.06-0.02-0.08-0.03c-0.28-0.1-0.53-0.16-0.74-0.21
		c0,0-0.01,0-0.01,0c-0.03-0.01-0.05-0.01-0.08-0.01c0,0-0.01,0-0.01,0c-0.38-0.08-0.67-0.07-0.67-0.07h-3.05
		c-0.07,0-0.13,0.06-0.13,0.13v0.41c0,0.07,0.06,0.13,0.13,0.13c0.39,0,0.67,0.11,0.86,0.33c0.2,0.23,0.3,0.6,0.3,1.11v13.26
		c0,0.46-0.09,0.82-0.27,1.08c-0.17,0.25-0.4,0.36-0.69,0.36h-0.2c-0.07,0-0.13,0.06-0.13,0.13v0.41c0,0.07,0.06,0.13,0.13,0.13
		h3.43c0.07,0,0.13-0.06,0.13-0.13v-0.41c0-0.07-0.06-0.13-0.13-0.13c-0.39,0-0.67-0.11-0.88-0.33c-0.2-0.23-0.31-0.6-0.31-1.11
		v-7.06v-2.09v-1.18c0-0.01-0.01-0.01-0.01-0.02l0.01-2.9c0-0.46,0.09-0.82,0.27-1.08c0.08-0.11,0.17-0.19,0.27-0.25
		c0.15-0.08,0.48-0.18,1.07-0.03c0.03,0.01,0.06,0.01,0.09,0.02c0.11,0.03,0.23,0.07,0.37,0.12c0.94,0.36,1.88,1.01,2.3,1.36
		c4.02,3.34,6.04,8.67,6.96,11.98c0.05,0.2,0.21,0.81,0.19,1.31c0,0.04,0,0.08-0.01,0.12c0,0.03-0.01,0.06-0.01,0.09
		c-0.04,0.28-0.12,0.51-0.24,0.69c-0.17,0.25-0.4,0.36-0.69,0.36h-0.22c-0.07,0-0.13,0.06-0.13,0.13v0.41
		c0,0.07,0.06,0.13,0.13,0.13h3.93c0.07,0,0.13-0.06,0.13-0.13v-0.41c0-0.07-0.06-0.13-0.13-0.13c-0.39,0-0.67-0.11-0.86-0.33
		c-0.2-0.23-0.3-0.6-0.3-1.11v-13.26c0-0.46,0.09-0.82,0.27-1.08c0.17-0.25,0.4-0.36,0.69-0.36h0.2c0.07,0,0.13-0.06,0.13-0.13
		v-0.41C250.43,149.2,250.38,149.14,250.3,149.14z"/>
	<path class="st0" d="M64.82,165.96c-0.36,0-0.67-0.12-0.94-0.37c-0.28-0.26-0.53-0.62-0.73-1.08l-6.66-15.3
		c-0.02-0.05-0.07-0.08-0.12-0.08h-0.42c-0.05,0-0.1,0.03-0.12,0.08l-6.4,15.42c-0.21,0.47-0.45,0.81-0.71,1.03
		c-0.25,0.21-0.56,0.31-0.94,0.31c-0.07,0-0.13,0.06-0.13,0.13v0.39c0,0.07,0.06,0.13,0.13,0.13h3.49c0.07,0,0.13-0.06,0.13-0.13
		v-0.39c0-0.07-0.06-0.13-0.13-0.13h-0.26c-0.4,0-0.67-0.15-0.82-0.46c-0.11-0.24,0.51-2.14,0.91-3.19
		c1.14-1.03,2.81-2.13,5.14-2.62c0.63-0.13,2.43-0.35,3.19,0.17c0.07,0.05,0.13,0.1,0.17,0.16l0.32,0.73l0.27,0.63l0,0
		c0.05,0.11,0.13,0.28,0.24,0.53c0.14,0.31,0.28,0.66,0.44,1.02c0.15,0.37,0.3,0.71,0.44,1.03c0.14,0.33,0.23,0.53,0.27,0.61
		c0.19,0.42,0.22,0.76,0.09,1.01c-0.12,0.24-0.36,0.36-0.71,0.36h-0.26c-0.07,0-0.13,0.06-0.13,0.13v0.41
		c0,0.07,0.06,0.13,0.13,0.13h4.13c0.07,0,0.13-0.06,0.13-0.13v-0.41C64.95,166.01,64.89,165.96,64.82,165.96z M56.1,159.07
		c-1.9,0.4-3.38,1.17-4.51,2.01l0.03-0.07c0.07-0.18,0.15-0.36,0.23-0.55c0.08-0.19,0.15-0.37,0.22-0.53c0-0.01,0.01-0.02,0.01-0.03
		l0.1-0.23l0.28-0.68c0,0,0,0,0,0l3.26-7.85l3.47,7.93C57.95,158.7,56.19,159.05,56.1,159.07z"/>
	<path class="st0" d="M82.96,149.16h-3.93c-0.07,0-0.13,0.06-0.13,0.13v0.41c0,0.07,0.06,0.13,0.13,0.13c0.39,0,0.67,0.11,0.88,0.33
		c0.2,0.23,0.31,0.6,0.31,1.11v4.85v3.13v1.09c0,0.01,0.01,0.01,0.01,0.02l0,1.5c-1.09-3.37-3.13-7.94-6.76-10.95
		c-0.07-0.05-1.02-0.82-2.15-1.32c-0.08-0.03-0.16-0.07-0.24-0.1c-0.03-0.01-0.06-0.02-0.08-0.03c-0.28-0.1-0.53-0.16-0.74-0.21
		c0,0-0.01,0-0.01,0c-0.03-0.01-0.05-0.01-0.08-0.01c0,0-0.01,0-0.01,0c-0.38-0.08-0.67-0.07-0.67-0.07h-3.05
		c-0.07,0-0.13,0.06-0.13,0.13v0.41c0,0.07,0.06,0.13,0.13,0.13c0.39,0,0.67,0.11,0.86,0.33c0.2,0.23,0.3,0.6,0.3,1.11v13.26
		c0,0.46-0.09,0.82-0.27,1.08c-0.17,0.25-0.4,0.36-0.69,0.36h-0.2c-0.07,0-0.13,0.06-0.13,0.13v0.41c0,0.07,0.06,0.13,0.13,0.13
		h3.43c0.07,0,0.13-0.06,0.13-0.13v-0.41c0-0.07-0.06-0.13-0.13-0.13c-0.39,0-0.67-0.11-0.88-0.33c-0.2-0.23-0.31-0.6-0.31-1.11
		v-7.06v-2.09v-1.18c0-0.01-0.01-0.01-0.01-0.02l0.01-2.9c0-0.46,0.09-0.82,0.27-1.08c0.08-0.11,0.17-0.19,0.27-0.25
		c0.15-0.08,0.48-0.18,1.07-0.03c0.03,0.01,0.06,0.01,0.09,0.02c0.11,0.03,0.23,0.07,0.37,0.12c0.94,0.36,1.88,1.01,2.3,1.36
		c4.02,3.34,6.04,8.67,6.96,11.98c0.05,0.2,0.21,0.81,0.19,1.31c0,0.04,0,0.08-0.01,0.12c0,0.03-0.01,0.06-0.01,0.09
		c-0.04,0.28-0.12,0.51-0.24,0.69c-0.17,0.25-0.4,0.36-0.69,0.36h-0.22c-0.07,0-0.13,0.06-0.13,0.13v0.41
		c0,0.07,0.06,0.13,0.13,0.13h3.93c0.07,0,0.13-0.06,0.13-0.13v-0.41c0-0.07-0.06-0.13-0.13-0.13c-0.39,0-0.67-0.11-0.86-0.33
		c-0.2-0.23-0.3-0.6-0.3-1.11v-13.26c0-0.46,0.09-0.82,0.27-1.08c0.17-0.25,0.4-0.36,0.69-0.36h0.2c0.07,0,0.13-0.06,0.13-0.13
		v-0.41C83.09,149.21,83.03,149.16,82.96,149.16z"/>
	<path class="st0" d="M31.68,159.72c-0.27-0.55-0.66-1.03-1.17-1.45c-0.5-0.42-1.12-0.76-1.83-1.03c-0.5-0.19-1.04-0.34-1.62-0.45
		c-0.02,0-0.04-0.01-0.07-0.02c0.11-0.03,0.21-0.06,0.32-0.09l0,0l0,0c0.89-0.26,1.64-0.63,2.22-1.14c0.8-0.7,1.2-1.6,1.2-2.67
		c0-0.56-0.13-1.09-0.38-1.56c-0.25-0.47-0.61-0.87-1.06-1.2c-0.45-0.32-1.01-0.58-1.65-0.75c-0.64-0.18-1.35-0.26-2.13-0.26h-7.1
		c-0.07,0-0.13,0.06-0.13,0.13v0.41c0,0.07,0.06,0.13,0.13,0.13h0.2c0.29,0,0.52,0.12,0.69,0.37c0.18,0.26,0.27,0.61,0.27,1.06
		v10.15c0,2.28-0.73,3.46-1.29,4.02c-0.16,0.17-0.31,0.28-0.43,0.35c-0.03,0.02-0.07,0.05-0.11,0.07c-0.17,0.09-0.37,0.14-0.63,0.14
		c-0.06,0-0.1,0.04-0.12,0.09H17v0.04v0.41v0.13h0.13h0.52h1.93h6.48h0.13c0.88,0,1.69-0.12,2.41-0.35
		c0.72-0.23,1.34-0.57,1.86-1.01c0.51-0.44,0.92-0.98,1.2-1.61c0.28-0.62,0.43-1.33,0.43-2.09
		C32.08,160.87,31.95,160.27,31.68,159.72z M25.51,149.67c1.11,0,2,0.29,2.65,0.87c0.65,0.57,0.97,1.35,0.97,2.32
		c0,1.06-0.36,1.94-1.08,2.59c-0.3,0.27-0.66,0.48-1.05,0.66l0,0c-0.1,0.04-0.19,0.09-0.29,0.13c-0.09,0.04-0.17,0.09-0.26,0.13
		c-0.7,0.34-1.03,0.57-1.03,0.57s-0.67,0.41-1.01,0.66l0,0c-1.54,1.08-2.57,2.41-3.26,3.66v-2.59v-3.46v-5.54H25.51z M30.11,163.38
		c-0.21,0.55-0.51,1.03-0.89,1.41c-0.38,0.39-0.84,0.69-1.37,0.9c-0.54,0.21-1.14,0.31-1.79,0.31h-4.17h-0.72h-1.59H19.4
		c0.06-0.05,0.12-0.09,0.18-0.14c0.35-0.31,0.62-0.7,0.83-1.12l0,0c0.2-0.4,0.34-0.81,0.45-1.22l0,0.01
		c0.58-1.85,2.01-4.65,5.42-6.27c0.15,0.03,0.31,0.07,0.45,0.11c0.78,0.22,1.45,0.53,1.99,0.92c0.54,0.39,0.97,0.86,1.26,1.41
		c0.29,0.55,0.44,1.16,0.44,1.83C30.43,162.21,30.32,162.83,30.11,163.38z"/>
	<path class="st0" d="M199.21,159.72c-0.27-0.55-0.66-1.03-1.17-1.45c-0.5-0.42-1.12-0.76-1.83-1.03c-0.5-0.19-1.04-0.34-1.62-0.45
		c-0.02,0-0.04-0.01-0.07-0.02c0.11-0.03,0.21-0.06,0.32-0.09l0,0c0,0,0,0,0,0c0.89-0.26,1.64-0.63,2.22-1.14
		c0.8-0.7,1.2-1.6,1.2-2.67c0-0.56-0.13-1.09-0.38-1.56c-0.25-0.47-0.61-0.87-1.06-1.2c-0.45-0.32-1.01-0.58-1.65-0.75
		c-0.64-0.18-1.35-0.26-2.13-0.26h-7.1c-0.07,0-0.13,0.06-0.13,0.13v0.41c0,0.07,0.06,0.13,0.13,0.13h0.2
		c0.29,0,0.52,0.12,0.69,0.37c0.18,0.26,0.27,0.61,0.27,1.06v10.15c0,2.28-0.73,3.46-1.29,4.02c-0.16,0.17-0.31,0.28-0.43,0.35
		c-0.03,0.02-0.07,0.05-0.11,0.07c-0.17,0.09-0.37,0.14-0.63,0.14c-0.06,0-0.1,0.04-0.12,0.09h-0.01v0.04v0.41v0.13h0.13h0.52h1.93
		h6.48h0.13c0.88,0,1.69-0.12,2.41-0.35c0.72-0.23,1.34-0.57,1.86-1.01c0.51-0.44,0.92-0.98,1.2-1.61c0.28-0.62,0.43-1.33,0.43-2.09
		C199.62,160.87,199.48,160.27,199.21,159.72z M193.05,149.67c1.11,0,2,0.29,2.65,0.87c0.65,0.57,0.97,1.35,0.97,2.32
		c0,1.06-0.36,1.94-1.08,2.59c-0.3,0.27-0.66,0.48-1.05,0.66l0,0c-0.1,0.04-0.19,0.09-0.29,0.13c-0.09,0.04-0.17,0.09-0.26,0.13
		c-0.7,0.34-1.03,0.57-1.03,0.57s-0.67,0.41-1.01,0.66l0,0c-1.54,1.08-2.57,2.41-3.26,3.66v-2.59v-3.46v-5.54H193.05z
		 M197.65,163.38c-0.21,0.55-0.51,1.03-0.89,1.41c-0.38,0.39-0.84,0.69-1.37,0.9c-0.54,0.21-1.14,0.31-1.79,0.31h-4.17h-0.72h-1.59
		h-0.18c0.06-0.05,0.12-0.09,0.18-0.14c0.35-0.31,0.62-0.7,0.83-1.12l0,0c0.2-0.4,0.34-0.81,0.45-1.22l0,0.01
		c0.58-1.85,2.01-4.65,5.42-6.27c0.15,0.03,0.31,0.07,0.45,0.11c0.78,0.22,1.45,0.53,1.99,0.92c0.54,0.39,0.97,0.86,1.26,1.41
		c0.29,0.55,0.44,1.16,0.44,1.83C197.97,162.21,197.86,162.83,197.65,163.38z"/>
</g>
</svg>
