<?xml version="1.0" encoding="iso-8859-1"?>
<!-- Generator: Adobe Illustrator 21.0.2, SVG Export Plug-In . SVG Version: 6.00 Build 0)  -->
<svg version="1.1" id="&#x5716;&#x5C64;_1" xmlns="http://www.w3.org/2000/svg" xmlns:xlink="http://www.w3.org/1999/xlink" x="0px"
	 y="0px" viewBox="0 0 424.84 424.84" style="enable-background:new 0 0 424.84 424.84;" xml:space="preserve">
<title>工作區域 3 複本 9</title>
<path style="fill:none;stroke:#FFFFFF;stroke-width:7;stroke-linecap:round;stroke-linejoin:round;" d="M259.884,137.203
	c5.25-22.007,24.592-36.633,48.206-36.633c27.625,0,50.02,22.395,50.02,50.02c0,21.552-13.63,39.92-32.74,46.955"/>
<circle style="fill:none;stroke:#FFFFFF;stroke-width:10;stroke-miterlimit:10;" cx="212.42" cy="212.42" r="202.62"/>
<circle style="fill:none;stroke:#FFFFFF;stroke-width:7;stroke-linecap:round;stroke-linejoin:round;" cx="99.5" cy="166.42" r="50.02"/>
<circle style="fill:none;stroke:#FFFFFF;stroke-width:7;stroke-linecap:round;stroke-linejoin:round;" cx="142.79" cy="304.63" r="50.02"/>
<polygon style="fill:none;stroke:#4EB563;stroke-width:7;stroke-miterlimit:10;" points="274.78,151.96 357.05,226.09 
	357.05,273.91 307.78,318.31 176.23,199.77 176.23,151.96 225.5,107.56 "/>
<polyline style="fill:none;stroke:#4EB563;stroke-width:7;stroke-miterlimit:10;" points="357.05,225.78 307.78,270.17 
	176.23,151.96 "/>
<line style="fill:none;stroke:#4EB563;stroke-width:7;stroke-miterlimit:10;" x1="307.78" y1="318.31" x2="307.78" y2="270.17"/>
<circle style="fill:#FFFFFF;" cx="287.38" cy="134.72" r="4.22"/>
<circle style="fill:#FFFFFF;" cx="130.43" cy="151.96" r="4.22"/>
<circle style="fill:#FFFFFF;" cx="176.23" cy="290.02" r="4.22"/>
<circle style="fill:#FFFFFF;" cx="303.87" cy="146.37" r="4.22"/>
<polygon style="fill:none;stroke:#4EB563;stroke-width:5;stroke-linecap:round;stroke-miterlimit:10;" points="224.59,140.06 
	206.7,156.17 224.59,172.29 242.47,156.17 "/>
<line style="fill:none;stroke:#4EB563;stroke-width:5;stroke-linecap:round;stroke-miterlimit:10;" x1="224.59" y1="140.06" x2="224.59" y2="172.29"/>
</svg>
