<?xml version="1.0" encoding="iso-8859-1"?>
<!-- Generator: Adobe Illustrator 21.0.2, SVG Export Plug-In . SVG Version: 6.00 Build 0)  -->
<svg version="1.1" id="&#x5716;&#x5C64;_1" xmlns="http://www.w3.org/2000/svg" xmlns:xlink="http://www.w3.org/1999/xlink" x="0px"
	 y="0px" viewBox="0 0 424.84 424.84" style="enable-background:new 0 0 424.84 424.84;" xml:space="preserve">
<title>工作區域 3 複本 11</title>
<circle style="fill:none;stroke:#FFFFFF;stroke-width:10;stroke-miterlimit:10;" cx="212.42" cy="212.42" r="202.62"/>
<circle style="fill:none;stroke:#FFFFFF;stroke-width:7;stroke-linecap:round;stroke-linejoin:round;" cx="99.5" cy="166.42" r="50.02"/>
<circle style="fill:none;stroke:#FFFFFF;stroke-width:7;stroke-linecap:round;stroke-linejoin:round;" cx="142.79" cy="304.63" r="50.02"/>
<path style="fill:none;stroke:#FFFFFF;stroke-width:7;stroke-linecap:round;stroke-linejoin:round;" d="M348.64,135.6v150.56
	c-0.024,3.004-2.478,5.421-5.482,5.397c-1.33-0.01-2.609-0.507-3.598-1.397l-93.81-84.52c-2.446-2.207-3.845-5.345-3.85-8.64V46.68
	c0.024-3.004,2.478-5.421,5.482-5.397c1.33,0.01,2.609,0.507,3.598,1.397l93.8,84.29C347.227,129.173,348.63,132.307,348.64,135.6z"
	/>
<path style="fill:none;stroke:#4EB563;stroke-width:7;stroke-linecap:round;stroke-linejoin:round;" d="M267.088,165.629
	c-5.013-25.227,0.479-47.16,13.552-50.864c14.474-4.101,32.76,15.697,40.842,44.221s2.9,54.972-11.574,59.073
	c-10.483,2.97-21.784-6.403-31.359-21.601"/>
<circle style="fill:#FFFFFF;" cx="130.43" cy="151.96" r="4.22"/>
<circle style="fill:#FFFFFF;" cx="176.23" cy="290.02" r="4.22"/>
<polygon style="fill:none;stroke:#4EB563;stroke-width:5;stroke-linecap:round;stroke-miterlimit:10;" points="258.32,177.12 
	276.16,196.93 295.94,174.98 276.16,157.32 "/>
<line style="fill:none;stroke:#4EB563;stroke-width:5;stroke-linecap:round;stroke-miterlimit:10;" x1="258.32" y1="177.12" x2="295.94" y2="174.98"/>
<circle style="fill:#4EB563;" cx="278.55" cy="141.1" r="2.79"/>
<circle style="fill:#4EB563;" cx="295.94" cy="153.32" r="2.79"/>
<line style="fill:none;stroke:#4EB563;stroke-width:7;stroke-linecap:round;stroke-linejoin:round;" x1="212.42" y1="103.37" x2="226.46" y2="112.43"/>
<line style="fill:none;stroke:#4EB563;stroke-width:7;stroke-linecap:round;stroke-linejoin:round;" x1="205.62" y1="134.85" x2="221" y2="136.74"/>
<line style="fill:none;stroke:#4EB563;stroke-width:7;stroke-linecap:round;stroke-linejoin:round;" x1="212.42" y1="166.42" x2="226.46" y2="156.17"/>
<line style="fill:none;stroke:#FFFFFF;stroke-width:7;stroke-linecap:round;stroke-linejoin:round;" x1="92.09" y1="48.9" x2="211.74" y2="49.1"/>
<line style="fill:none;stroke:#FFFFFF;stroke-width:7;stroke-linecap:round;stroke-linejoin:round;" x1="332.75" y1="309" x2="259.77" y2="409.31"/>
</svg>
