<svg id="圖層_1" data-name="圖層 1" xmlns="http://www.w3.org/2000/svg" viewBox="0 0 424.84 424.84"><defs><style>.cls-1,.cls-2,.cls-3,.cls-4,.cls-5,.cls-6{fill:none;}.cls-1,.cls-6{stroke:#231815;}.cls-1{stroke-miterlimit:10;stroke-width:10px;}.cls-2,.cls-3,.cls-4,.cls-5{stroke:#468ccb;}.cls-2,.cls-3,.cls-4,.cls-5,.cls-6{stroke-linecap:round;stroke-linejoin:round;stroke-width:7px;}.cls-3{stroke-dasharray:9.72 19.43;}.cls-4{stroke-dasharray:9.01 18.02;}.cls-5{stroke-dasharray:9.01 18.02;}</style></defs><title>工作區域 3 複本 3</title><circle class="cls-1" cx="212.42" cy="212.42" r="202.62"/><polyline class="cls-2" points="209.53 281.32 213.24 284.67 213.24 279.67"/><line class="cls-3" x1="213.24" y1="260.24" x2="213.24" y2="153.35"/><polyline class="cls-2" points="213.24 143.63 213.24 138.63 209.53 141.98"/><line class="cls-4" x1="196.14" y1="154.04" x2="142.61" y2="202.28"/><polyline class="cls-2" points="135.92 208.31 132.2 211.65 135.92 215"/><line class="cls-4" x1="149.3" y1="227.06" x2="202.83" y2="275.29"/><polyline class="cls-2" points="216.96 141.98 213.24 138.63 213.24 143.63"/><line class="cls-3" x1="213.24" y1="163.07" x2="213.24" y2="269.95"/><polyline class="cls-2" points="213.24 279.67 213.24 284.67 216.96 281.32"/><line class="cls-5" x1="230.34" y1="269.27" x2="283.87" y2="221.03"/><polyline class="cls-2" points="290.56 215 294.28 211.65 290.56 208.31"/><line class="cls-5" x1="277.18" y1="196.25" x2="223.65" y2="148.01"/><line class="cls-6" x1="107.77" y1="233.15" x2="213.24" y2="328.19"/><line class="cls-6" x1="213.24" y1="328.19" x2="318.71" y2="233.15"/><line class="cls-6" x1="107.77" y1="130.8" x2="213.24" y2="225.84"/><line class="cls-6" x1="213.24" y1="225.84" x2="318.71" y2="130.8"/><line class="cls-6" x1="318.71" y1="130.8" x2="213.24" y2="35.77"/><line class="cls-6" x1="213.24" y1="35.77" x2="107.77" y2="130.8"/><line class="cls-6" x1="107.77" y1="130.8" x2="107.77" y2="233.15"/><line class="cls-6" x1="213.24" y1="225.84" x2="213.24" y2="328.19"/><line class="cls-6" x1="318.71" y1="130.8" x2="318.71" y2="233.15"/></svg>