<svg id="圖層_1" data-name="圖層 1" xmlns="http://www.w3.org/2000/svg" viewBox="0 0 841.89 595.28"><defs><style>.cls-1{fill:none;}</style></defs><title>標準字</title><path d="M169.13,357.91a6.29,6.29,0,0,1,1.7-4.36,5.48,5.48,0,0,1,4.24-1.87H313.78a5.49,5.49,0,0,1,4.24,1.87,6.3,6.3,0,0,1,1.7,4.36v9.62a6.53,6.53,0,0,1-1.7,4.54,5.49,5.49,0,0,1-4.24,1.87H175.07a5.48,5.48,0,0,1-4.24-1.87,6.51,6.51,0,0,1-1.7-4.54Zm9.67-119.65a6.13,6.13,0,0,1,1.78-4.36,5.56,5.56,0,0,1,4.15-1.87H304.45a5.57,5.57,0,0,1,4.15,1.87,6.13,6.13,0,0,1,1.78,4.36v9.26a6.34,6.34,0,0,1-1.78,4.54,5.57,5.57,0,0,1-4.15,1.87H184.73a5.56,5.56,0,0,1-4.15-1.87,6.34,6.34,0,0,1-1.78-4.54Zm12,58.22a6.2,6.2,0,0,1,1.7-4.45,5.62,5.62,0,0,1,4.24-1.78h93.94a5.7,5.7,0,0,1,4.15,1.78,6,6,0,0,1,1.78,4.45v9.44a6.34,6.34,0,0,1-1.78,4.54,5.57,5.57,0,0,1-4.15,1.87H196.77a5.48,5.48,0,0,1-4.24-1.87,6.51,6.51,0,0,1-1.7-4.54Z"/><path d="M479.28,251.79a5.57,5.57,0,0,1,4.15,1.87,6.35,6.35,0,0,1,1.78,4.54v98.1q0,9.08-2.37,13.89a15.46,15.46,0,0,1-8.31,7.3q-7.8,3.2-31.2,3.56a6.79,6.79,0,0,1-4.58-1.78,8.6,8.6,0,0,1-2.88-4.27,92.14,92.14,0,0,0-3.56-9.26,3.82,3.82,0,0,1,.25-3.74,3.36,3.36,0,0,1,3-1.78q9.16.36,24.25.36,2.88-.17,3.9-1.16a4.73,4.73,0,0,0,1-3.47V342.24c0-.47-.23-.71-.68-.71H378.55a.81.81,0,0,0-.85.71q-7,22.08-22,35.43a5,5,0,0,1-4.32,1.43,6.36,6.36,0,0,1-4.15-2.49l-2.88-3q-1.7-1.78-3.22-3.2a5.37,5.37,0,0,1,0-7.83,59.86,59.86,0,0,0,18.14-28.67,115.13,115.13,0,0,0,3.39-17.09,162,162,0,0,0,.85-17.63V272.8a.29.29,0,0,0-.17-.27.27.27,0,0,0-.34.09q-1.7,1.43-3.9,3.38a5.55,5.55,0,0,1-4.41,1.25,5.89,5.89,0,0,1-3.9-2.31l-3.22-3.74-3.05-3.2a4.91,4.91,0,0,1-1.61-3.92,4.37,4.37,0,0,1,1.78-3.56,135.23,135.23,0,0,0,37.48-45,8.73,8.73,0,0,1,3.73-3.92,7.56,7.56,0,0,1,3.56-.89,5.4,5.4,0,0,1,1.36.18l10.17,1.78a4.16,4.16,0,0,1,3.22,2.49,4.38,4.38,0,0,1,0,4.1,2.07,2.07,0,0,1-.34.53c-.23.48-.06.71.51.71h33.24a1.44,1.44,0,0,0,.68-.18,11,11,0,0,1,1.87-.18,5.94,5.94,0,0,1,3.56,1.25l6.44,4.45a6.29,6.29,0,0,1,2.8,4,6.49,6.49,0,0,1-.76,4.9q-4.92,8.37-10.51,16.38c-.34.48-.23.71.34.71Zm-66.13,54.48c0-.47-.23-.71-.68-.71H384q-.68,0-.68.89-.34,8.91-1.19,15.67c-.11.48.06.71.51.71h29.84c.45,0,.68-.29.68-.89Zm13.23-67.48c.23-.47.11-.71-.34-.71H393.47a1.09,1.09,0,0,0-1,.71,128.22,128.22,0,0,1-9.16,12.46.3.3,0,0,0-.08.36c.06.12.2.18.42.18h34.25a1.09,1.09,0,0,0,1-.71Q424,243.25,426.37,238.8Zm-42.05,32c-.57,0-.85.3-.85.89v15c0,.48.28.71.85.71h28.15c.45,0,.68-.24.68-.71v-15c0-.59-.23-.89-.68-.89ZM464,287.4c.45,0,.68-.24.68-.71v-15c0-.59-.23-.89-.68-.89H433.49q-.68,0-.68.89v15c0,.48.23.71.68.71Zm-31.2,34.54c0,.6.23.89.68.89H464c.45,0,.68-.29.68-.89V306.28c0-.47-.23-.71-.68-.71H433.49c-.45,0-.68.24-.68.71Z"/><path d="M526.08,379.81a5.24,5.24,0,0,1-3.82,2.85,7.34,7.34,0,0,1-5-.71l-2.71-1.6A4.79,4.79,0,0,1,512,377a6,6,0,0,1-.17-1.42,6.13,6.13,0,0,1,.85-3.21A67.24,67.24,0,0,0,520,351.5a5.77,5.77,0,0,1,2.54-3.83,4.74,4.74,0,0,1,4.24-.62l2.37.71A7.12,7.12,0,0,1,533,351a6.61,6.61,0,0,1,.85,4.81Q531,371.44,526.08,379.81Z"/><path d="M537.1,352.57V351.5a5.85,5.85,0,0,1,1.19-3.56,4.78,4.78,0,0,1,3.9-2.31l.68-.18a5.82,5.82,0,0,1,4.58,1.25A6.9,6.9,0,0,1,550,351q1.53,9.61,2.2,19.41a6.25,6.25,0,0,1-1.53,4.54,6.54,6.54,0,0,1-4.24,2.4l-1.36.18a4.74,4.74,0,0,1-4.16-1.34,5.55,5.55,0,0,1-1.78-4.18A161.52,161.52,0,0,0,537.1,352.57Z"/><path d="M555.41,351.68a5,5,0,0,1-.34-1.78,5.54,5.54,0,0,1,.85-2.85,5.22,5.22,0,0,1,3.56-2.67l.51-.18a6.13,6.13,0,0,1,4.75.89,7.41,7.41,0,0,1,3.05,3.92,164.25,164.25,0,0,1,4.41,18.16,6.14,6.14,0,0,1-.93,4.72,6,6,0,0,1-3.82,2.76l-1,.18a5,5,0,0,1-4.32-1,6.56,6.56,0,0,1-2.46-4A175.28,175.28,0,0,0,555.41,351.68Z"/><path d="M573.39,349.36a5.17,5.17,0,0,1-.68-2.49,6.46,6.46,0,0,1,.34-2,4.23,4.23,0,0,1,2.88-3l1-.53a7.5,7.5,0,0,1,5.09,0,7.13,7.13,0,0,1,3.9,3.2,121.93,121.93,0,0,1,8.14,16.91,6.91,6.91,0,0,1-.17,5,5.74,5.74,0,0,1-3.39,3.38l-1.86.89a5.23,5.23,0,0,1-4.41-.18,5.86,5.86,0,0,1-3.05-3.38A134.47,134.47,0,0,0,573.39,349.36Z"/><path d="M671,253.93a5.71,5.71,0,0,0-4.16-1.78H640c-.45,0-.68-.29-.68-.89V221a6,6,0,0,0-1.78-4.45,5.9,5.9,0,0,0-4.32-1.78h-8.14a5.7,5.7,0,0,0-4.16,1.78,6,6,0,0,0-1.78,4.45v78.34c0,.6-.28.89-.85.89H602.38a5.48,5.48,0,0,0-4.24,1.87,6.28,6.28,0,0,0-1.7,4.36v71.93a6.28,6.28,0,0,0,1.7,4.36,5.48,5.48,0,0,0,4.24,1.87h6.78a5.57,5.57,0,0,0,4.15-1.87,6.13,6.13,0,0,0,1.78-4.36c0-.6.28-.89.85-.89h30.69c.45,0,.68.24.68.71a5.79,5.79,0,0,0,1.53,4,4.84,4.84,0,0,0,3.73,1.69h8.48A5.48,5.48,0,0,0,665.3,382a6.51,6.51,0,0,0,1.7-4.54v-71a6.3,6.3,0,0,0-1.7-4.36,5.48,5.48,0,0,0-4.24-1.87H640c-.45,0-.68-.29-.68-.89V273c0-.59.22-.89.68-.89h26.79a5.57,5.57,0,0,0,4.16-1.87,6.13,6.13,0,0,0,1.78-4.36v-7.48A6,6,0,0,0,671,253.93ZM646.47,320c.56,0,.85.24.85.71v36.5c0,.59-.28.89-.85.89H616c-.57,0-.85-.3-.85-.89V320.7c0-.47.28-.71.85-.71Z"/><path class="cls-1" d="M546.09,234.52H533c-.45,0-.68.3-.68.89v4.34h9.7V245a7.46,7.46,0,0,1,.3.69,134.08,134.08,0,0,1,3.05,15.13,5.62,5.62,0,0,1-.85,4,6.21,6.21,0,0,1-3.05,2.58,3.66,3.66,0,0,1-3.39-.62,4,4,0,0,1-1.69-2.94,124,124,0,0,0-2.76-15.27h-1.31v24.71c0,.6.22.89.68.89h13.06c.56,0,.85-.29.85-.89V235.41C546.94,234.82,546.65,234.52,546.09,234.52Z"/><path d="M546.14,260.87a134.08,134.08,0,0,0-3.05-15.13,7.46,7.46,0,0,0-.3-.69,6.48,6.48,0,0,0-2.75-3,5.67,5.67,0,0,0-4.58-.53l-1.7.53c-.77.26-.8,1.1-.51,2.31.41,1.43.78,2.87,1.14,4.32a124,124,0,0,1,2.76,15.27,4,4,0,0,0,1.69,2.94,3.66,3.66,0,0,0,3.39.62,6.21,6.21,0,0,0,3.05-2.58A5.62,5.62,0,0,0,546.14,260.87Z"/><path class="cls-1" d="M546.09,234.52H533c-.45,0-.68.3-.68.89v37.92c0,.6.22.89.68.89h13.06c.56,0,.85-.29.85-.89V235.41C546.94,234.82,546.65,234.52,546.09,234.52Z"/><path class="cls-1" d="M574.41,273.34V268.5H559.48v4.83c0,.6.22.89.68.89h13.39C574.12,274.23,574.41,273.93,574.41,273.34Z"/><path class="cls-1" d="M574.41,235.41c0-.59-.28-.89-.85-.89H560.16c-.45,0-.68.3-.68.89v2.23h14.92Z"/><path d="M590.94,321.85a5,5,0,0,0-4.16-1.69q-2.38,0-10.85.45t-13.06.62c-.45,0-.68-.29-.68-.89v-6.41c0-.47.22-.71.68-.71h21a5.75,5.75,0,0,0,4.32-1.87,6.34,6.34,0,0,0,1.78-4.54v-3.74a6.34,6.34,0,0,0-1.78-4.54,5.75,5.75,0,0,0-4.32-1.87h-21c-.45,0-.68-.24-.68-.71v-6.41c0-.59.22-.89.68-.89h21.37a5.88,5.88,0,0,0,4.32-1.78,6,6,0,0,0,1.78-4.45V226.33a6.34,6.34,0,0,0-1.78-4.54,5.75,5.75,0,0,0-4.32-1.87H522.86a5.48,5.48,0,0,0-4.24,1.87,6.51,6.51,0,0,0-1.7,4.54v56.09a6.19,6.19,0,0,0,1.7,4.45,5.6,5.6,0,0,0,4.24,1.78H543.2c.45,0,.68.3.68.89v6.41c0,.48-.23.71-.68.71h-20a5.48,5.48,0,0,0-4.24,1.87,6.51,6.51,0,0,0-1.7,4.54v3.74a6.51,6.51,0,0,0,1.7,4.54,5.48,5.48,0,0,0,4.24,1.87h20c.45,0,.68.24.68.71v7.12c0,.6-.23.89-.68.89q-20.52.71-24.08.71a5.38,5.38,0,0,0-4.24,2,6.62,6.62,0,0,0-1.7,4.45l.17,5.7a6.46,6.46,0,0,0,2,4.27,5.88,5.88,0,0,0,4.32,1.78q30-1.42,66.81-3.74a6.24,6.24,0,0,0,4.32-2.14,6.65,6.65,0,0,0,1.78-4.63v-4.1A5.56,5.56,0,0,0,590.94,321.85Zm-44-48.52c0,.6-.28.89-.85.89H533c-.45,0-.68-.29-.68-.89V235.41c0-.59.22-.89.68-.89h13.06c.56,0,.85.3.85.89Zm12.55,0V235.41c0-.59.22-.89.68-.89h13.39c.56,0,.85.3.85.89v37.92c0,.6-.28.89-.85.89H560.16C559.71,274.23,559.48,273.93,559.48,273.34Z"/><path d="M561.59,266.64a5.65,5.65,0,0,0,4.46-.36,5.46,5.46,0,0,0,2.89-3.48q1-3.06,4.37-13.61c.38-1.55,1.21-5.32-.74-6.18l-1.78-.6a4.41,4.41,0,0,0-4.05.51,5.07,5.07,0,0,0-2.32,3.62q-1.56,8.46-4.05,17.29C560.05,266.26,561.59,266.64,561.59,266.64Z"/></svg>