<?xml version="1.0" encoding="utf-8"?>
<!-- Generator: Adobe Illustrator 24.2.1, SVG Export Plug-In . SVG Version: 6.00 Build 0)  -->
<svg version="1.1" id="圖層_1" xmlns="http://www.w3.org/2000/svg" xmlns:xlink="http://www.w3.org/1999/xlink" x="0px" y="0px"
	 viewBox="0 0 841.9 595.3" style="enable-background:new 0 0 841.9 595.3;" xml:space="preserve">
<style type="text/css">
	.st0{fill:#FFFFFF;}
</style>
<path class="st0" d="M169.1,357.9c0-1.6,0.6-3.2,1.7-4.4c1.1-1.2,2.6-1.9,4.2-1.9h138.7c1.6,0,3.2,0.7,4.2,1.9
	c1.1,1.2,1.7,2.7,1.7,4.4v9.6c0,1.7-0.6,3.3-1.7,4.5s-2.6,1.9-4.2,1.9H175.1c-1.6,0-3.2-0.7-4.2-1.9c-1.1-1.2-1.7-2.9-1.7-4.5v-9.6
	H169.1z M178.8,238.3c0-1.6,0.6-3.2,1.8-4.4c1.1-1.2,2.6-1.9,4.1-1.9h119.7c1.6,0,3.1,0.7,4.1,1.9c1.2,1.2,1.8,2.7,1.8,4.4v9.3
	c0,1.7-0.6,3.3-1.8,4.5c-1.1,1.2-2.6,1.9-4.1,1.9H184.7c-1.6,0-3.1-0.7-4.1-1.9c-1.2-1.2-1.8-2.8-1.8-4.5L178.8,238.3L178.8,238.3z
	 M190.8,296.5c0-1.7,0.6-3.3,1.7-4.5c1.1-1.2,2.6-1.8,4.2-1.8h93.9c1.6,0,3.1,0.6,4.1,1.8c1.2,1.2,1.8,2.8,1.8,4.5v9.4
	c0,1.7-0.6,3.3-1.8,4.5c-1.1,1.2-2.6,1.9-4.1,1.9h-93.9c-1.6,0-3.2-0.7-4.2-1.9c-1.1-1.2-1.7-2.9-1.7-4.5L190.8,296.5z"/>
<path class="st0" d="M479.3,251.8c1.6,0,3.1,0.7,4.1,1.9c1.2,1.2,1.8,2.9,1.8,4.5v98.1c0,6.1-0.8,10.7-2.4,13.9
	c-1.8,3.4-4.7,6-8.3,7.3c-5.2,2.1-15.6,3.3-31.2,3.6c-1.7,0-3.3-0.6-4.6-1.8c-1.4-1.1-2.4-2.6-2.9-4.3c-1-3.1-2.2-6.2-3.6-9.3
	c-0.6-1.2-0.5-2.6,0.2-3.7c0.6-1.1,1.7-1.8,3-1.8c6.1,0.2,14.2,0.4,24.2,0.4c1.9-0.1,3.2-0.5,3.9-1.2c0.8-1,1.1-2.2,1-3.5v-13.7
	c0-0.5-0.2-0.7-0.7-0.7h-85.5c-0.4,0-0.8,0.3-0.9,0.7c-4.7,14.7-12,26.5-22,35.4c-1.1,1.1-2.7,1.7-4.3,1.4c-1.7-0.3-3.1-1.1-4.1-2.5
	l-2.9-3c-1.1-1.2-2.2-2.3-3.2-3.2c-2.2-2-2.3-5.4-0.2-7.6c0.1-0.1,0.2-0.2,0.2-0.2c8.7-7.6,15-17.6,18.1-28.7
	c1.6-5.6,2.7-11.3,3.4-17.1c0.6-5.9,0.9-11.7,0.9-17.6v-26.4c0-0.1-0.1-0.2-0.2-0.3c-0.1-0.1-0.3,0-0.3,0.1c-1.1,1-2.4,2.1-3.9,3.4
	c-1.2,1-2.8,1.5-4.4,1.2c-1.6-0.2-3-1.1-3.9-2.3l-3.2-3.7l-3-3.2c-1.1-1-1.7-2.4-1.6-3.9c0-1.4,0.6-2.7,1.8-3.6
	c15.6-12.1,28.4-27.4,37.5-45c0.8-1.7,2.1-3,3.7-3.9c1.1-0.6,2.3-0.9,3.6-0.9c0.5,0,0.9,0.1,1.4,0.2l10.2,1.8
	c1.4,0.2,2.7,1.2,3.2,2.5c0.7,1.3,0.7,2.8,0,4.1c-0.1,0.2-0.2,0.4-0.3,0.5c-0.2,0.5-0.1,0.7,0.5,0.7h33.2c0.2,0,0.5-0.1,0.7-0.2
	c0.6-0.1,1.2-0.2,1.9-0.2c1.3,0,2.5,0.5,3.6,1.2l6.4,4.4c1.4,0.9,2.4,2.3,2.8,4s0.1,3.4-0.8,4.9c-3.3,5.6-6.8,11-10.5,16.4
	c-0.3,0.5-0.2,0.7,0.3,0.7L479.3,251.8z M413.1,306.3c0-0.5-0.2-0.7-0.7-0.7H384c-0.5,0-0.7,0.3-0.7,0.9c-0.2,5.9-0.6,11.2-1.2,15.7
	c-0.1,0.5,0.1,0.7,0.5,0.7h29.8c0.5,0,0.7-0.3,0.7-0.9L413.1,306.3z M426.4,238.8c0.2-0.5,0.1-0.7-0.3-0.7h-32.6
	c-0.4,0-0.8,0.3-1,0.7c-2.8,4.3-5.9,8.5-9.2,12.5c-0.1,0.1-0.1,0.2-0.1,0.4c0.1,0.1,0.2,0.2,0.4,0.2h34.2c0.4,0,0.8-0.3,1-0.7
	C422.3,245.9,424.8,241.8,426.4,238.8L426.4,238.8z M384.3,270.8c-0.6,0-0.9,0.3-0.9,0.9v15c0,0.5,0.3,0.7,0.9,0.7h28.1
	c0.5,0,0.7-0.2,0.7-0.7v-15c0-0.6-0.2-0.9-0.7-0.9H384.3z M464,287.4c0.5,0,0.7-0.2,0.7-0.7v-15c0-0.6-0.2-0.9-0.7-0.9h-30.5
	c-0.5,0-0.7,0.3-0.7,0.9v15c0,0.5,0.2,0.7,0.7,0.7H464z M432.8,321.9c0,0.6,0.2,0.9,0.7,0.9H464c0.5,0,0.7-0.3,0.7-0.9v-15.7
	c0-0.5-0.2-0.7-0.7-0.7h-30.5c-0.5,0-0.7,0.2-0.7,0.7V321.9z"/>
<path class="st0" d="M526.1,379.8c-0.7,1.5-2.2,2.6-3.8,2.9c-1.7,0.4-3.5,0.1-5-0.7l-2.7-1.6c-1.3-0.7-2.3-1.9-2.5-3.4
	c-0.1-0.5-0.2-0.9-0.2-1.4c0-1.1,0.3-2.2,0.9-3.2c3.6-6.5,6-13.6,7.3-20.9c0.3-1.6,1.2-3,2.5-3.8c1.2-0.9,2.8-1.1,4.2-0.6l2.4,0.7
	c1.6,0.6,3,1.7,3.9,3.2c0.9,1.4,1.2,3.2,0.8,4.8C532,366.2,529.4,374.2,526.1,379.8z"/>
<path class="st0" d="M537.1,352.6v-1.1c0-1.3,0.4-2.5,1.2-3.6c0.8-1.4,2.3-2.2,3.9-2.3l0.7-0.2c1.6-0.3,3.3,0.2,4.6,1.2
	c1.4,1.1,2.3,2.6,2.5,4.3c1,6.4,1.8,12.9,2.2,19.4c0.1,1.7-0.4,3.3-1.5,4.5c-1.1,1.3-2.6,2.2-4.2,2.4l-1.4,0.2
	c-1.5,0.3-3.1-0.2-4.2-1.3c-1.2-1.1-1.8-2.6-1.8-4.2C538.8,365.5,538.2,359,537.1,352.6z"/>
<path class="st0" d="M555.4,351.7c-0.2-0.6-0.3-1.2-0.3-1.8c0-1,0.3-2,0.8-2.9c0.7-1.4,2-2.4,3.6-2.7l0.5-0.2c1.6-0.4,3.4,0,4.8,0.9
	c1.4,0.9,2.5,2.3,3,3.9c1.8,6,3.3,12,4.4,18.2c0.3,1.6,0,3.3-0.9,4.7c-0.8,1.4-2.2,2.4-3.8,2.8l-1,0.2c-1.5,0.4-3.1,0-4.3-1
	c-1.3-1-2.2-2.4-2.5-4C558.6,363.7,557.2,357.7,555.4,351.7z"/>
<path class="st0" d="M573.4,349.4c-0.4-0.8-0.7-1.6-0.7-2.5c0-0.7,0.1-1.4,0.3-2c0.4-1.4,1.5-2.6,2.9-3l1-0.5c1.6-0.6,3.4-0.6,5.1,0
	c1.6,0.6,3,1.7,3.9,3.2c3.1,5.4,5.9,11.1,8.1,16.9c0.6,1.6,0.5,3.4-0.2,5c-0.6,1.6-1.8,2.8-3.4,3.4l-1.9,0.9c-1.4,0.6-3,0.5-4.4-0.2
	s-2.5-1.9-3-3.4C579,361,576.4,355.1,573.4,349.4z"/>
<path class="st0" d="M671,253.9c-1.1-1.1-2.6-1.8-4.2-1.8H640c-0.5,0-0.7-0.3-0.7-0.9V221c0.1-1.7-0.6-3.3-1.8-4.4
	c-1.1-1.2-2.7-1.8-4.3-1.8h-8.1c-1.6,0-3.1,0.6-4.2,1.8c-1.2,1.2-1.8,2.8-1.8,4.4v78.3c0,0.6-0.3,0.9-0.8,0.9h-15.9
	c-1.6,0-3.2,0.7-4.2,1.9c-1.1,1.2-1.7,2.7-1.7,4.4v71.9c0,1.6,0.6,3.2,1.7,4.4c1.1,1.2,2.6,1.9,4.2,1.9h6.8c1.6,0,3.1-0.7,4.2-1.9
	c1.2-1.2,1.8-2.7,1.8-4.4c0-0.6,0.3-0.9,0.8-0.9h30.7c0.5,0,0.7,0.2,0.7,0.7c0,1.5,0.5,2.9,1.5,4c0.9,1.1,2.3,1.7,3.7,1.7h8.5
	c1.6,0,3.2-0.7,4.2-1.9c1.1-1.2,1.7-2.9,1.7-4.5v-71c0-1.6-0.6-3.2-1.7-4.4c-1.1-1.2-2.6-1.9-4.2-1.9H640c-0.5,0-0.7-0.3-0.7-0.9
	V273c0-0.6,0.2-0.9,0.7-0.9h26.8c1.6,0,3.1-0.7,4.2-1.9c1.2-1.2,1.8-2.7,1.8-4.4v-7.5C672.8,256.7,672.2,255.1,671,253.9z
	 M646.5,320c0.6,0,0.8,0.2,0.8,0.7v36.5c0,0.6-0.3,0.9-0.8,0.9H616c-0.6,0-0.8-0.3-0.8-0.9v-36.5c0-0.5,0.3-0.7,0.8-0.7H646.5z"/>
<path class="st0" d="M546.1,260.9c-0.7-5.1-1.7-10.1-3-15.1c-0.1-0.2-0.2-0.5-0.3-0.7c-0.6-1.3-1.5-2.3-2.8-3c-1.4-0.8-3-1-4.6-0.5
	l-1.7,0.5c-0.8,0.3-0.8,1.1-0.5,2.3c0.4,1.4,0.8,2.9,1.1,4.3c1.2,5,2.2,10.1,2.8,15.3c0.1,1.2,0.7,2.3,1.7,2.9c1,0.8,2.2,1,3.4,0.6
	c1.3-0.5,2.3-1.4,3-2.6C546.1,263.7,546.4,262.3,546.1,260.9z"/>
<path class="st0" d="M590.9,321.9c-1-1.2-2.6-1.8-4.2-1.7c-1.6,0-5.2,0.2-10.8,0.5s-10,0.5-13.1,0.6c-0.5,0-0.7-0.3-0.7-0.9V314
	c0-0.5,0.2-0.7,0.7-0.7h21c1.6,0,3.2-0.7,4.3-1.9c1.2-1.2,1.8-2.8,1.8-4.5v-3.7c0-1.7-0.6-3.3-1.8-4.5c-1.1-1.2-2.7-1.9-4.3-1.9h-21
	c-0.5,0-0.7-0.2-0.7-0.7v-6.4c0-0.6,0.2-0.9,0.7-0.9h21.4c1.6,0,3.2-0.6,4.3-1.8c1.2-1.2,1.8-2.8,1.8-4.5v-56.1
	c0-1.7-0.6-3.3-1.8-4.5c-1.1-1.2-2.7-1.9-4.3-1.9h-61.4c-1.6,0-3.2,0.7-4.2,1.9c-1.1,1.2-1.7,2.9-1.7,4.5v56.1
	c0,1.7,0.6,3.3,1.7,4.5c1.1,1.2,2.6,1.8,4.2,1.8h20.3c0.5,0,0.7,0.3,0.7,0.9v6.4c0,0.5-0.2,0.7-0.7,0.7h-20c-1.6,0-3.2,0.7-4.2,1.9
	c-1.1,1.2-1.7,2.9-1.7,4.5v3.7c0,1.7,0.6,3.3,1.7,4.5c1.1,1.2,2.6,1.9,4.2,1.9h20c0.5,0,0.7,0.2,0.7,0.7v7.1c0,0.6-0.2,0.9-0.7,0.9
	c-13.7,0.5-21.7,0.7-24.1,0.7c-1.6,0-3.2,0.7-4.2,2c-1.1,1.2-1.7,2.8-1.7,4.5l0.2,5.7c0.1,1.6,0.8,3.1,2,4.3
	c1.1,1.2,2.7,1.8,4.3,1.8c20-0.9,42.3-2.2,66.8-3.7c1.7-0.1,3.2-0.9,4.3-2.1c1.2-1.3,1.8-2.9,1.8-4.6v-4.1
	C592.7,324.6,592.1,323,590.9,321.9z M546.9,273.3c0,0.6-0.3,0.9-0.8,0.9H533c-0.5,0-0.7-0.3-0.7-0.9v-37.9c0-0.6,0.2-0.9,0.7-0.9
	h13.1c0.6,0,0.8,0.3,0.8,0.9L546.9,273.3z M559.5,273.3v-37.9c0-0.6,0.2-0.9,0.7-0.9h13.4c0.6,0,0.8,0.3,0.8,0.9v37.9
	c0,0.6-0.3,0.9-0.8,0.9h-13.4C559.7,274.2,559.5,273.9,559.5,273.3L559.5,273.3z"/>
<path class="st0" d="M561.6,266.6c1.5,0.5,3.1,0.4,4.5-0.4c1.4-0.7,2.5-2,2.9-3.5c0.7-2,2.1-6.6,4.4-13.6c0.4-1.6,1.2-5.3-0.7-6.2
	l-1.8-0.6c-1.4-0.5-2.9-0.3-4,0.5c-1.3,0.8-2.1,2.1-2.3,3.6c-1,5.6-2.4,11.4-4,17.3C560,266.3,561.6,266.6,561.6,266.6z"/>
</svg>
