<?xml version="1.0" encoding="utf-8"?>
<!-- Generator: Adobe Illustrator 24.2.3, SVG Export Plug-In . SVG Version: 6.00 Build 0)  -->
<svg version="1.1" id="圖層_1" xmlns="http://www.w3.org/2000/svg" xmlns:xlink="http://www.w3.org/1999/xlink" x="0px" y="0px"
	 viewBox="0 0 841.9 827.8" style="enable-background:new 0 0 841.9 827.8;" xml:space="preserve">
<style type="text/css">
	.st0{fill:#FFFFFF;}
</style>
<path class="st0" d="M568,501.2C568,501.2,568,501.1,568,501.2c-0.1-0.6-0.2-1.1-0.4-1.7c0-0.1,0-0.1-0.1-0.2
	c-0.1-0.5-0.3-1-0.4-1.4c0-0.1-0.1-0.3-0.1-0.4c-0.1-0.4-0.3-0.8-0.4-1.2c-0.1-0.2-0.1-0.4-0.2-0.6c-0.1-0.4-0.3-0.7-0.4-1.1
	c-0.1-0.2-0.2-0.5-0.3-0.7c-0.1-0.3-0.3-0.6-0.4-0.9c-0.1-0.3-0.2-0.5-0.4-0.8c-0.1-0.3-0.3-0.6-0.4-0.9c-0.1-0.3-0.3-0.5-0.4-0.8
	c-0.1-0.2-0.2-0.3-0.3-0.5l-110.8-192c0-0.1-0.1-0.1-0.1-0.2c-0.3-0.4-0.5-0.9-0.8-1.3c-0.1-0.1-0.1-0.2-0.2-0.3
	c-0.3-0.4-0.6-0.9-0.9-1.3c-0.1-0.1-0.1-0.2-0.2-0.3c-0.3-0.4-0.6-0.8-0.9-1.1c-0.1-0.1-0.2-0.3-0.3-0.4c-0.3-0.3-0.5-0.6-0.8-1
	c-0.1-0.2-0.3-0.3-0.4-0.5c-0.2-0.3-0.5-0.5-0.7-0.8c-0.2-0.2-0.4-0.4-0.6-0.6c-0.2-0.2-0.4-0.4-0.6-0.6c-0.3-0.2-0.5-0.5-0.8-0.7
	c-0.2-0.1-0.3-0.3-0.5-0.4c-0.3-0.3-0.6-0.5-1-0.8c-0.1-0.1-0.3-0.2-0.4-0.3c-0.4-0.3-0.8-0.6-1.1-0.9c-0.1-0.1-0.2-0.1-0.3-0.2
	c-0.4-0.3-0.8-0.6-1.3-0.9c-0.1-0.1-0.2-0.1-0.3-0.2c-0.4-0.3-0.9-0.6-1.3-0.8c-0.1,0-0.1-0.1-0.2-0.1c0,0-0.1-0.1-0.1-0.1
	c-0.4-0.2-0.8-0.5-1.3-0.7c-0.2-0.1-0.3-0.2-0.5-0.2c-0.3-0.2-0.7-0.3-1-0.5c-0.2-0.1-0.5-0.2-0.7-0.3c-0.2-0.1-0.5-0.2-0.7-0.3
	c-0.3-0.1-0.7-0.3-1-0.4c-0.1-0.1-0.3-0.1-0.4-0.1c-0.5-0.2-0.9-0.3-1.4-0.5c0,0,0,0,0,0c-3.4-1.1-6.9-1.7-10.4-1.7
	c-0.3,0-0.6,0-0.9,0c-0.3,0-0.6,0-0.9,0c-3.5,0.1-7,0.7-10.4,1.7c0,0,0,0,0,0c-0.5,0.1-0.9,0.3-1.4,0.5c-0.1,0-0.3,0.1-0.4,0.1
	c-0.3,0.1-0.7,0.3-1,0.4c-0.2,0.1-0.5,0.2-0.7,0.3c-0.2,0.1-0.5,0.2-0.7,0.3c-0.3,0.2-0.7,0.3-1,0.5c-0.2,0.1-0.3,0.2-0.5,0.2
	c-0.4,0.2-0.8,0.4-1.3,0.7c0,0-0.1,0.1-0.1,0.1c-0.1,0-0.1,0.1-0.2,0.1c-0.4,0.3-0.9,0.5-1.3,0.8c-0.1,0.1-0.2,0.1-0.3,0.2
	c-0.4,0.3-0.9,0.6-1.3,0.9c-0.1,0.1-0.2,0.1-0.3,0.2c-0.4,0.3-0.8,0.6-1.1,0.9c-0.1,0.1-0.3,0.2-0.4,0.3c-0.3,0.3-0.6,0.5-1,0.8
	c-0.2,0.1-0.3,0.3-0.5,0.4c-0.3,0.2-0.5,0.5-0.8,0.7c-0.2,0.2-0.4,0.4-0.6,0.6c-0.2,0.2-0.4,0.4-0.6,0.6c-0.2,0.3-0.5,0.5-0.7,0.8
	c-0.1,0.2-0.3,0.3-0.4,0.5c-0.3,0.3-0.5,0.6-0.8,1c-0.1,0.1-0.2,0.3-0.3,0.4c-0.3,0.4-0.6,0.7-0.9,1.1c-0.1,0.1-0.1,0.2-0.2,0.3
	c-0.3,0.4-0.6,0.8-0.9,1.3c-0.1,0.1-0.1,0.2-0.2,0.3c-0.3,0.4-0.5,0.9-0.8,1.3c0,0.1-0.1,0.1-0.1,0.2l-110.8,192c0,0,0,0.1,0,0.1
	c-0.3,0.5-0.6,1-0.8,1.5c0,0,0,0.1,0,0.1c-0.3,0.5-0.5,1.1-0.8,1.6c0,0,0,0.1,0,0.1c-0.2,0.5-0.4,1-0.7,1.6c0,0.1,0,0.1-0.1,0.2
	c-0.2,0.5-0.4,1-0.5,1.5c0,0.1-0.1,0.2-0.1,0.3c-0.1,0.4-0.3,0.9-0.4,1.3c0,0.2-0.1,0.3-0.1,0.5c-0.1,0.4-0.2,0.8-0.3,1.2
	c-0.1,0.2-0.1,0.4-0.2,0.7c-0.1,0.3-0.1,0.7-0.2,1c-0.1,0.3-0.1,0.6-0.1,0.8c0,0.3-0.1,0.6-0.1,0.9c0,0.3-0.1,0.6-0.1,1
	c0,0.3-0.1,0.5-0.1,0.8c0,0.4-0.1,0.7-0.1,1.1c0,0.3,0,0.5,0,0.8c0,0.4,0,0.7,0,1.1c0,0.2,0,0.3,0,0.5c0,0.1,0,0.3,0,0.4
	c0,0.3,0,0.6,0,0.9c0,0.4,0,0.7,0,1.1c0,0.2,0,0.4,0,0.6c0,0.5,0.1,0.9,0.1,1.4c0,0.1,0,0.1,0,0.2c0.7,6,2.9,11.6,6.1,16.4
	c0,0.1,0.1,0.1,0.1,0.2c0.3,0.4,0.6,0.8,0.9,1.2c0.1,0.2,0.3,0.4,0.4,0.6c0.2,0.3,0.4,0.5,0.6,0.8c0.2,0.2,0.4,0.5,0.6,0.7
	c0.2,0.2,0.4,0.4,0.6,0.6c0.2,0.2,0.4,0.4,0.6,0.7c0.2,0.2,0.4,0.4,0.6,0.6c0.2,0.2,0.4,0.4,0.6,0.5c0.3,0.2,0.5,0.5,0.8,0.7
	c0.1,0.1,0.3,0.3,0.4,0.4c0.3,0.3,0.7,0.6,1,0.9c0.1,0.1,0.2,0.1,0.3,0.2c0.4,0.3,0.8,0.7,1.3,1c0,0,0,0,0.1,0c3,2.2,6.4,3.9,10,5.1
	c0,0,0,0,0,0c0.5,0.2,1.1,0.3,1.6,0.5c0.1,0,0.1,0,0.2,0.1c0.5,0.1,0.9,0.2,1.4,0.4c0.1,0,0.3,0.1,0.4,0.1c0.4,0.1,0.8,0.2,1.2,0.2
	c0.2,0,0.4,0.1,0.7,0.1c0.3,0.1,0.7,0.1,1,0.2c0.3,0,0.6,0.1,0.8,0.1c0.3,0,0.6,0.1,0.9,0.1c0.3,0,0.7,0.1,1,0.1c0.3,0,0.5,0,0.8,0
	c0.3,0,0.7,0,1,0c0.2,0,0.3,0,0.5,0h221.7c0.2,0,0.3,0,0.5,0c0.4,0,0.7,0,1.1,0c0.3,0,0.5,0,0.8,0c0.4,0,0.7,0,1.1-0.1
	c0.3,0,0.5,0,0.8-0.1c0.3,0,0.6-0.1,1-0.1c0.3,0,0.6-0.1,0.9-0.1c0.3,0,0.6-0.1,0.8-0.1c0.3-0.1,0.7-0.1,1-0.2
	c0.2,0,0.4-0.1,0.7-0.2c0.4-0.1,0.8-0.2,1.2-0.3c0.2,0,0.3-0.1,0.5-0.1c0.5-0.1,0.9-0.3,1.3-0.4c0.1,0,0.2-0.1,0.3-0.1
	c0.5-0.2,1-0.3,1.5-0.5c0.1,0,0.1,0,0.2-0.1c0.5-0.2,1-0.4,1.6-0.7c0,0,0.1,0,0.1,0c0.5-0.2,1.1-0.5,1.6-0.8c0,0,0.1,0,0.1,0
	c0.5-0.3,1-0.5,1.5-0.8c0,0,0.1,0,0.1,0c0,0,0,0,0.1,0c0.5-0.3,0.9-0.5,1.4-0.8c0.1-0.1,0.2-0.1,0.3-0.2c0.4-0.2,0.7-0.5,1.1-0.7
	c0.2-0.1,0.4-0.3,0.6-0.4c0.2-0.2,0.5-0.4,0.7-0.6c0.3-0.2,0.5-0.4,0.8-0.6c0.1-0.1,0.3-0.2,0.4-0.3c0.4-0.3,0.7-0.6,1.1-0.9
	c0,0,0,0,0.1-0.1c2.7-2.4,4.9-5.2,6.7-8.1c0,0,0.1-0.1,0.1-0.2c0.3-0.4,0.5-0.9,0.8-1.3c0.2-0.3,0.3-0.6,0.5-0.9
	c0.1-0.2,0.2-0.4,0.3-0.6c0.2-0.5,0.4-0.9,0.7-1.4c0-0.1,0-0.1,0.1-0.2c0.5-1.1,0.9-2.2,1.2-3.3c0,0,0,0,0,0c0.2-0.5,0.3-1,0.4-1.5
	c0-0.1,0.1-0.2,0.1-0.3c0.1-0.4,0.2-0.8,0.3-1.2c0-0.2,0.1-0.4,0.1-0.6c0.1-0.3,0.1-0.6,0.2-0.9c0.1-0.3,0.1-0.6,0.2-0.9
	c0-0.2,0.1-0.4,0.1-0.6c0.1-0.4,0.1-0.9,0.2-1.3c0-0.1,0-0.2,0-0.3c0.1-0.5,0.1-1.1,0.1-1.6c0,0,0,0,0-0.1
	C568.8,507.4,568.6,504.3,568,501.2z M420.9,481.5c-20.4,0-36.9-16.5-36.9-36.9c0-20.4,16.5-36.9,36.9-36.9
	c20.4,0,36.9,16.5,36.9,36.9C457.9,465,441.3,481.5,420.9,481.5z"/>
</svg>
