<?xml version="1.0" encoding="utf-8"?>
<!-- Generator: Adobe Illustrator 23.0.0, SVG Export Plug-In . SVG Version: 6.00 Build 0)  -->
<svg version="1.1" id="圖層_1" xmlns="http://www.w3.org/2000/svg" xmlns:xlink="http://www.w3.org/1999/xlink" x="0px" y="0px"
	 viewBox="0 0 235.5 211.9" style="enable-background:new 0 0 235.5 211.9;" xml:space="preserve">
<style type="text/css">
	.st0{fill:#666666;}
</style>
<title>三角點_logo</title>
<path class="st0" d="M234.9,176.6L234.9,176.6c-0.1-0.4-0.2-0.9-0.3-1.3c0-0.1,0-0.1,0-0.2c-0.1-0.4-0.2-0.8-0.3-1.1
	c0-0.1-0.1-0.2-0.1-0.3c-0.1-0.3-0.2-0.6-0.3-1l-0.2-0.5l-0.3-0.8l-0.2-0.5c-0.1-0.3-0.2-0.5-0.3-0.7s-0.2-0.4-0.3-0.6
	s-0.2-0.5-0.4-0.7s-0.2-0.4-0.3-0.6l-0.2-0.4L143.1,14.7c0,0,0-0.1-0.1-0.1c-0.2-0.4-0.4-0.7-0.6-1.1c0-0.1-0.1-0.1-0.1-0.2
	c-0.2-0.3-0.5-0.7-0.7-1c0-0.1-0.1-0.1-0.2-0.2c-0.2-0.3-0.5-0.6-0.7-0.9l-0.2-0.3l-0.6-0.8l-0.3-0.4c-0.2-0.2-0.4-0.4-0.6-0.6
	l-0.5-0.5L138,8.1c-0.2-0.2-0.4-0.4-0.6-0.6L137,7.2l-0.8-0.6l-0.3-0.2L135,5.6l-0.2-0.2l-1-0.7l-0.2-0.1L132.5,4c0,0-0.1,0-0.1-0.1
	l-0.1-0.1c-0.3-0.2-0.7-0.4-1-0.5l-0.4-0.2l-0.8-0.4l-0.6-0.3l-0.6-0.3l-0.8-0.3l-0.3-0.1l-1.1-0.4l0,0c-2.7-0.9-5.5-1.3-8.3-1.4
	H117c-2.8,0.1-5.6,0.5-8.3,1.4l0,0l-1.1,0.4l-0.3,0.1c-0.3,0.1-0.6,0.2-0.8,0.3l-0.6,0.3l-0.6,0.3l-0.8,0.4l-0.4,0.2
	c-0.3,0.2-0.7,0.4-1,0.5L103,3.9L102.9,4c-0.4,0.2-0.7,0.4-1.1,0.6l-0.2,0.1l-1,0.7l-0.2,0.2c-0.3,0.2-0.6,0.5-0.9,0.7l-0.3,0.2
	l-0.8,0.6L98,7.6c-0.2,0.2-0.4,0.4-0.6,0.6l-0.5,0.5l-0.5,0.5c-0.2,0.2-0.4,0.4-0.6,0.6l-0.4,0.4c-0.2,0.3-0.4,0.5-0.6,0.8l-0.2,0.3
	c-0.2,0.3-0.5,0.6-0.7,0.9l-0.2,0.2l-0.7,1l-0.1,0.2c-0.2,0.4-0.4,0.7-0.6,1.1l-0.1,0.1L3.8,167.8c0,0,0,0,0,0.1
	c-0.2,0.4-0.4,0.8-0.7,1.2v0.1c-0.2,0.4-0.4,0.8-0.6,1.3v0.1c-0.2,0.4-0.4,0.8-0.5,1.2l-0.1,0.1c-0.2,0.4-0.3,0.8-0.4,1.2
	c0,0.1,0,0.2-0.1,0.3c-0.1,0.4-0.2,0.7-0.3,1.1c0,0.1-0.1,0.3-0.1,0.4l-0.2,0.9l-0.1,0.5c-0.1,0.3-0.1,0.5-0.2,0.8l-0.1,0.7
	c0,0.2-0.1,0.5-0.1,0.7s-0.1,0.5-0.1,0.8s-0.1,0.4-0.1,0.6L0,180.7v0.6c0,0.3,0,0.6,0,0.9c0,0.1,0,0.2,0,0.4s0,0.2,0,0.3
	s0,0.5,0,0.7s0,0.6,0,0.9s0,0.3,0,0.5c0,0.4,0.1,0.7,0.1,1.1c0,0,0,0.1,0,0.1c0.6,4.7,2.2,9.2,4.9,13l0.1,0.1c0.2,0.3,0.5,0.7,0.7,1
	l0.4,0.5c0.2,0.2,0.3,0.4,0.5,0.6s0.3,0.4,0.5,0.6l0.4,0.5l0.5,0.5l0.5,0.5l0.5,0.4c0.2,0.2,0.4,0.4,0.6,0.6s0.2,0.2,0.3,0.3
	s0.5,0.5,0.8,0.7l0.2,0.2l1,0.8l0,0c2.4,1.7,5.1,3.1,7.9,4.1l0,0c0.4,0.1,0.9,0.3,1.3,0.4l0.2,0l1.1,0.3l0.3,0.1l1,0.2l0.5,0.1
	l0.8,0.1l0.7,0.1l0.7,0.1l0.8,0.1h0.6h0.8h177.5h0.8h0.6l0.8-0.1l0.6-0.1l0.8-0.1l0.7-0.1l0.7-0.1l0.8-0.2l0.5-0.1
	c0.3-0.1,0.6-0.1,1-0.2l0.4-0.1l1.1-0.3l0.3-0.1l1.2-0.4l0.1-0.1c0.4-0.2,0.8-0.3,1.3-0.5h0.1l1.3-0.6h0.1c0.4-0.2,0.8-0.4,1.2-0.7
	h0.1h0.1c0.4-0.2,0.7-0.4,1.1-0.7l0.3-0.2l0.9-0.6l0.4-0.3l0.6-0.4l0.6-0.5l0.3-0.3c0.3-0.2,0.6-0.5,0.8-0.7h0
	c2.1-1.9,3.9-4.1,5.4-6.5c0,0,0-0.1,0.1-0.1c0.2-0.4,0.4-0.7,0.6-1.1s0.3-0.5,0.4-0.7s0.2-0.3,0.3-0.5c0.2-0.4,0.4-0.8,0.5-1.1
	l0.1-0.1c0.4-0.9,0.7-1.7,1-2.6l0,0c0.1-0.4,0.2-0.8,0.4-1.2l0.1-0.2l0.2-1c0-0.1,0.1-0.3,0.1-0.5s0.1-0.5,0.1-0.8s0.1-0.5,0.1-0.7
	s0-0.3,0.1-0.5c0-0.4,0.1-0.7,0.1-1v-0.3c0-0.4,0.1-0.9,0.1-1.3l0,0C235.6,181.7,235.4,179.1,234.9,176.6z M145.5,124.4
	c-2.7,2.7-7.1,2.7-9.9,0l-13-13v51.5c-0.3,3.9-3.7,6.7-7.6,6.4c-3.4-0.3-6.1-3-6.4-6.4v-51.5l-13,13c-3,2.5-7.4,2.1-9.9-0.8
	c-2.2-2.6-2.2-6.4,0-9l24.1-24c0.2-0.3,0.5-0.6,0.8-0.9c1.3-1.3,3.1-2,5-2h0.1c1.9,0,3.7,0.7,5,2c0.3,0.3,0.5,0.6,0.8,0.9l24,24
	C148.3,117.2,148.3,121.6,145.5,124.4C145.5,124.4,145.5,124.4,145.5,124.4z"/>
</svg>
