<?xml version="1.0" encoding="utf-8"?>
<!-- Generator: Adobe Illustrator 24.2.1, SVG Export Plug-In . SVG Version: 6.00 Build 0)  -->
<svg version="1.1" id="圖層_1" xmlns="http://www.w3.org/2000/svg" xmlns:xlink="http://www.w3.org/1999/xlink" x="0px" y="0px"
	 viewBox="0 0 565.9 260.5" style="enable-background:new 0 0 565.9 260.5;" xml:space="preserve">
<style type="text/css">
	.st0{fill:#FFFFFF;}
</style>
<path class="st0" d="M16.8,193.5c0-1.8,0.6-3.2,1.8-4.7c1.2-1.2,2.6-2,4.4-2h146.7c1.8,0,3.2,0.6,4.4,2c1.2,1.2,1.8,2.9,1.8,4.7
	v10.2c0,1.8-0.6,3.5-1.8,4.7s-2.6,2-4.4,2H22.9c-1.8,0-3.2-0.6-4.4-2c-1.2-1.2-1.8-2.9-1.8-4.7L16.8,193.5L16.8,193.5z M27,67.1
	c0-1.8,0.6-3.5,1.8-4.7s2.6-2,4.4-2h126.5c1.8,0,3.2,0.6,4.4,2c1.2,1.2,1.8,2.9,1.8,4.7v9.7c0,1.8-0.6,3.5-1.8,4.7s-2.6,2-4.4,2
	H33.2c-1.8,0-3.2-0.6-4.4-2c-1.2-1.2-2-2.9-1.8-4.7C27,76.8,27,67.1,27,67.1z M39.9,128.5c0-1.8,0.6-3.5,1.8-4.7s2.9-2,4.4-1.8h99.2
	c1.8,0,3.2,0.6,4.4,1.8c1.2,1.2,2,2.9,1.8,4.7v10c0,1.8-0.6,3.5-1.8,4.7s-2.6,2-4.4,2H46.1c-1.8,0-3.2-0.6-4.4-2
	c-1.2-1.2-1.8-2.9-1.8-4.7C39.9,138.5,39.9,128.5,39.9,128.5z"/>
<path class="st0" d="M344.7,81.4c1.8,0,3.2,0.6,4.4,2c1.2,1.2,2,2.9,1.8,4.7v103.6c0,6.4-0.9,11.4-2.6,14.6c-1.8,3.5-5,6.4-8.8,7.6
	c-5.6,2.3-16.4,3.5-33.1,3.8c-1.8,0-3.5-0.6-5-1.8s-2.6-2.6-2.9-4.4c-1.2-3.2-2.3-6.7-3.8-9.7c-0.6-1.2-0.6-2.6,0.3-3.8
	c0.6-1.2,1.8-1.8,3.2-1.8c6.4,0.3,14.9,0.3,25.8,0.3c2,0,3.5-0.6,4.1-1.2c0.9-1.2,1.2-2.3,1.2-3.8v-14.3c0-0.6-0.3-0.9-0.6-0.9
	h-90.5c-0.6,0-0.9,0.3-0.9,0.9c-5,15.5-12.6,28.1-23.1,37.5c-1.2,1.2-2.9,1.8-4.7,1.5s-3.2-1.2-4.4-2.6l-2.9-3.2
	c-1.2-1.2-2.3-2.3-3.5-3.5c-2.3-2-2.3-5.9-0.3-7.9l0.3-0.3c9.1-7.9,15.8-18.4,19-30.2c1.8-5.9,2.9-12,3.5-18.1s0.9-12.3,0.9-18.7
	v-27.8c0,0,0-0.3-0.3-0.3h-0.3c-1.2,0.9-2.6,2.3-4.1,3.5c-1.2,1.2-2.9,1.5-4.7,1.5c-1.8-0.3-3.2-1.2-4.1-2.3l-3.5-3.8l-3.2-3.5
	c-1.2-1.2-1.8-2.6-1.8-4.1s0.6-2.9,1.8-3.8c16.4-12.9,30.2-29,39.5-47.4c0.9-1.8,2.3-3.2,3.8-4.1c1.2-0.6,2.3-0.9,3.8-0.9
	c0.6,0,0.9,0,1.5,0.3l10.8,1.8c1.5,0.3,2.9,1.2,3.5,2.6s0.6,2.9,0,4.4c0,0.3-0.3,0.3-0.3,0.6c-0.3,0.6,0,0.9,0.6,0.9h35.1
	c0.3,0,0.6,0,0.6-0.3c0.6,0,1.2-0.3,2-0.3c1.5,0,2.6,0.6,3.8,1.5l6.7,4.7c1.5,0.9,2.6,2.3,2.9,4.1s0,3.5-0.9,5.3
	c-3.5,5.9-7,11.7-11.1,17.3c-0.3,0.6-0.3,0.9,0.3,0.9L344.7,81.4z M274.7,139.1c0-0.6-0.3-0.9-0.6-0.9H244c-0.6,0-0.6,0.3-0.6,0.9
	c-0.3,6.1-0.6,11.7-1.2,16.7c0,0.6,0,0.9,0.6,0.9h31.6c0.6,0,0.6-0.3,0.6-0.9L274.7,139.1z M288.8,67.7c0.3-0.6,0-0.9-0.3-0.9H254
	c-0.6,0-0.9,0.3-1.2,0.9c-2.9,4.7-6.1,9.1-9.7,13.2c0,0-0.3,0.3,0,0.3c0,0,0.3,0.3,0.6,0.3H280c0.6,0,0.9-0.3,1.2-0.9
	C284.4,75.3,287,70.9,288.8,67.7L288.8,67.7z M244.3,101.6c-0.6,0-0.9,0.3-0.9,0.9v15.8c0,0.6,0.3,0.9,0.9,0.9h29.9
	c0.6,0,0.6-0.3,0.6-0.9v-15.8c0-0.6-0.3-0.9-0.6-0.9H244.3z M328.6,119.2c0.6,0,0.6-0.3,0.6-0.9v-15.8c0-0.6-0.3-0.9-0.6-0.9h-32.2
	c-0.6,0-0.6,0.3-0.6,0.9v15.8c0,0.6,0.3,0.9,0.6,0.9H328.6z M295.5,155.5c0,0.6,0.3,0.9,0.6,0.9h32.2c0.6,0,0.6-0.3,0.6-0.9v-16.7
	c0-0.6-0.3-0.9-0.6-0.9h-32.2c-0.6,0-0.6,0.3-0.6,0.9V155.5z"/>
<path class="st0" d="M394.1,216.7c-0.9,1.5-2.3,2.6-4.1,2.9s-3.8,0-5.3-0.9l-2.9-1.8c-1.5-0.6-2.3-2-2.6-3.5c0-0.6-0.3-0.9-0.3-1.5
	c0-1.2,0.3-2.3,0.9-3.5c3.8-6.7,6.4-14.3,7.6-22c0.3-1.8,1.2-3.2,2.6-4.1c1.2-0.9,2.9-1.2,4.4-0.6l2.6,0.9c1.8,0.6,3.2,1.8,4.1,3.5
	c0.9,1.5,1.2,3.2,0.9,5C400.3,202.3,397.7,210.8,394.1,216.7z"/>
<path class="st0" d="M405.9,188v-1.2c0-1.5,0.3-2.6,1.2-3.8c0.9-1.5,2.3-2.3,4.1-2.3l0.6-0.3c1.8-0.3,3.5,0.3,5,1.5s2.3,2.6,2.6,4.7
	c1.2,6.7,1.8,13.5,2.3,20.5c0,1.8-0.6,3.5-1.8,4.7c-1.2,1.5-2.6,2.3-4.4,2.6l-1.5,0.2c-1.5,0.3-3.2-0.3-4.4-1.5s-2-2.6-1.8-4.4
	C407.6,201.4,406.7,194.7,405.9,188z"/>
<path class="st0" d="M425.2,187.1c-0.3-0.6-0.3-1.2-0.3-1.8c0-1.2,0.3-2,0.9-2.9c0.9-1.5,2-2.6,3.8-2.9l0.6-0.3c1.8-0.3,3.5,0,5,0.9
	s2.6,2.3,3.2,4.1c2,6.4,3.5,12.6,4.7,19.3c0.3,1.8,0,3.5-0.9,5s-2.3,2.6-4.1,2.9l-1.2,0.3c-1.5,0.3-3.2,0-4.7-1.2s-2.3-2.6-2.6-4.1
	C428.4,199.7,426.9,193.2,425.2,187.1z"/>
<path class="st0" d="M444.2,184.5c-0.6-0.9-0.6-1.8-0.6-2.6c0-0.6,0-1.5,0.3-2c0.3-1.5,1.5-2.6,2.9-3.2l1.2-0.6
	c1.8-0.6,3.5-0.6,5.3,0s3.2,1.8,4.1,3.5c3.2,5.9,6.1,11.7,8.5,17.9c0.6,1.8,0.6,3.5-0.3,5.3c-0.6,1.8-2,2.9-3.5,3.5l-2,0.9
	c-1.5,0.6-3.2,0.6-4.7-0.3c-1.5-0.6-2.6-2-3.2-3.5C450.1,196.8,447.4,190.6,444.2,184.5z"/>
<path class="st0" d="M547.2,83.8c-1.2-1.2-2.6-1.8-4.4-1.8h-28.4c-0.6,0-0.6-0.3-0.6-0.9V48.9c0-1.8-0.6-3.5-1.8-4.7s-2.9-2-4.7-1.8
	h-8.5c-1.8,0-3.2,0.6-4.4,1.8s-2,2.9-1.8,4.7v82.8c0,0.6-0.3,0.9-0.9,0.9H475c-1.8,0-3.2,0.6-4.4,2c-1.2,1.2-1.8,2.9-1.8,4.7v76.1
	c0,1.8,0.6,3.2,1.8,4.7c1.2,1.2,2.6,2,4.4,2h7c1.8,0,3.2-0.6,4.4-2c1.2-1.2,1.8-2.9,1.8-4.7c0-0.6,0.3-0.9,0.9-0.9h32.5
	c0.6,0,0.6,0.3,0.6,0.9c0,1.5,0.6,3.2,1.8,4.1c0.9,1.2,2.3,1.8,3.8,1.8h9.1c1.8,0,3.2-0.6,4.4-2c1.2-1.2,1.8-2.9,1.8-4.7v-74.9
	c0-1.8-0.6-3.2-1.8-4.7c-1.2-1.2-2.6-2-4.4-2h-22.5c-0.6,0-0.6-0.3-0.6-0.9v-27.8c0-0.6,0.3-0.9,0.6-0.9h28.4c1.8,0,3.2-0.6,4.4-2
	c1.2-1.2,1.8-2.9,1.8-4.7v-7.9C549,86.7,548.4,84.9,547.2,83.8z M521.2,153.4c0.6,0,0.9,0.3,0.9,0.9v38.6c0,0.6-0.3,0.9-0.9,0.9H489
	c-0.6,0-0.9-0.3-0.9-0.9v-38.6c0-0.6,0.3-0.9,0.9-0.9H521.2z"/>
<path class="st0" d="M415.2,91.1c-0.9-5.3-1.8-10.8-3.2-16.1c0-0.3-0.3-0.6-0.3-0.6c-0.6-1.5-1.8-2.3-2.9-3.2
	c-1.5-0.9-3.2-1.2-5-0.6l-1.8,0.6c-0.9,0.3-0.9,1.2-0.6,2.3c0.3,1.5,0.9,2.9,1.2,4.7c1.2,5.3,2.3,10.8,2.9,16.1
	c0,1.2,0.9,2.3,1.8,3.2c0.9,0.9,2.3,1.2,3.5,0.6c1.5-0.6,2.3-1.5,3.2-2.6C415.2,94,415.5,92.5,415.2,91.1z"/>
<path class="st0" d="M462.6,155.5c-1.2-1.2-2.6-2-4.4-1.8c-1.8,0-5.6,0.3-11.4,0.6s-10.5,0.6-13.8,0.6c-0.6,0-0.6-0.3-0.6-0.9v-6.7
	c0-0.6,0.3-0.9,0.6-0.9h22.2c1.8,0,3.5-0.6,4.7-2c1.2-1.2,2-2.9,1.8-4.7v-3.8c0-1.8-0.6-3.5-1.8-4.7s-2.9-2-4.7-2H433
	c-0.6,0-0.6-0.3-0.6-0.9v-6.7c0-0.6,0.3-0.9,0.6-0.9h22.5c1.8,0,3.5-0.6,4.7-1.8c1.2-1.2,2-2.9,1.8-4.7V55.1c0-1.8-0.6-3.5-1.8-4.7
	s-2.9-2-4.7-2h-65c-1.8,0-3.2,0.6-4.4,2c-1.2,1.2-1.8,2.9-1.8,4.7v59.1c0,1.8,0.6,3.5,1.8,4.7s2.9,2,4.4,1.8H412
	c0.6,0,0.6,0.3,0.6,0.9v6.7c0,0.6-0.3,0.9-0.6,0.9h-21.1c-1.8,0-3.2,0.6-4.4,2c-1.2,1.2-1.8,2.9-1.8,4.7v3.8c0,1.8,0.6,3.5,1.8,4.7
	s2.6,2,4.4,2H412c0.6,0,0.6,0.3,0.6,0.9v7.6c0,0.6-0.3,0.9-0.6,0.9c-14.3,0.6-22.8,0.9-25.5,0.9c-1.8,0-3.5,0.9-4.4,2
	c-1.2,1.2-1.8,2.9-1.8,4.7l0.3,6.1c0,1.8,0.9,3.2,2,4.4c1.2,1.2,2.9,2,4.7,1.8c21.1-0.9,44.8-2.3,70.6-3.8c1.8,0,3.5-0.9,4.7-2.3
	s2-3.2,1.8-5v-4.4C464.4,158.4,463.8,156.7,462.6,155.5z M416.1,104.2c0,0.6-0.3,0.9-0.9,0.9h-13.8c-0.6,0-0.6-0.3-0.6-0.9V64.1
	c0-0.6,0.3-0.9,0.6-0.9h13.8c0.6,0,0.9,0.3,0.9,0.9V104.2z M429.3,104.2V64.1c0-0.6,0.3-0.9,0.6-0.9H444c0.6,0,0.9,0.3,0.9,0.9v40.1
	c0,0.6-0.3,0.9-0.9,0.9h-14.1C429.6,105.1,429.3,104.8,429.3,104.2L429.3,104.2z"/>
<path class="st0" d="M431.6,97.2c1.5,0.6,3.2,0.3,4.7-0.3c1.5-0.6,2.6-2,2.9-3.8c0.6-2,2.3-7,4.7-14.3c0.3-1.8,1.2-5.6-0.9-6.4
	l-1.8-0.6c-1.5-0.6-2.9-0.3-4.4,0.6s-2.3,2.3-2.3,3.8c-1.2,5.9-2.6,12-4.4,18.1C429.9,96.6,431.6,97.2,431.6,97.2z"/>
<path class="st0" d="M415.2,91.1c-0.9-5.3-1.8-10.8-3.2-16.1c0-0.3-0.3-0.6-0.3-0.6c-0.6-1.5-1.8-2.3-2.9-3.2
	c-1.5-0.9-3.2-1.2-5-0.6l-1.8,0.6c-0.9,0.3-0.9,1.2-0.6,2.3c0.3,1.5,0.9,2.9,1.2,4.7c1.2,5.3,2.3,10.8,2.9,16.1
	c0,1.2,0.9,2.3,1.8,3.2c0.9,0.9,2.3,1.2,3.5,0.6c1.5-0.6,2.3-1.5,3.2-2.6C415.2,94,415.5,92.5,415.2,91.1z"/>
<path class="st0" d="M431.6,97.2c1.5,0.6,3.2,0.3,4.7-0.3c1.5-0.6,2.6-2,2.9-3.8c0.6-2,2.3-7,4.7-14.3c0.3-1.8,1.2-5.6-0.9-6.4
	l-1.8-0.6c-1.5-0.6-2.9-0.3-4.4,0.6s-2.3,2.3-2.3,3.8c-1.2,5.9-2.6,12-4.4,18.1C429.9,96.6,431.6,97.2,431.6,97.2z"/>
</svg>
