<?xml version="1.0" encoding="utf-8"?>
<!-- Generator: Adobe Illustrator 25.4.1, SVG Export Plug-In . SVG Version: 6.00 Build 0)  -->
<svg version="1.1" id="圖層_1" xmlns="http://www.w3.org/2000/svg" xmlns:xlink="http://www.w3.org/1999/xlink" x="0px" y="0px"
	 viewBox="0 0 235.69 212.01" style="enable-background:new 0 0 235.69 212.01;" xml:space="preserve">
<style type="text/css">
	.st0{fill:#666666;}
	.st1{fill:#FFFFFF;}
</style>
<path class="st0" d="M235.1,176.63L235.1,176.63c-0.09-0.43-0.19-0.87-0.3-1.3c0-0.06,0-0.12,0-0.18c-0.1-0.38-0.21-0.76-0.32-1.13
	c0-0.11-0.07-0.22-0.1-0.32c-0.1-0.33-0.21-0.65-0.33-1l-0.16-0.45l-0.33-0.84l-0.24-0.55c-0.1-0.25-0.21-0.49-0.33-0.74
	s-0.19-0.41-0.29-0.61l-0.35-0.69l-0.33-0.6l-0.21-0.39l-88.45-153.1c-0.02-0.05-0.05-0.09-0.08-0.13c-0.2-0.36-0.42-0.71-0.64-1.06
	l-0.14-0.21c-0.22-0.34-0.45-0.67-0.69-1l-0.16-0.23l-0.69-0.9l-0.24-0.31l-0.65-0.76l-0.34-0.39l-0.57-0.62l-0.48-0.49l-0.48-0.47
	c-0.21-0.19-0.41-0.39-0.62-0.57l-0.39-0.35c-0.25-0.22-0.51-0.43-0.77-0.64l-0.3-0.24c-0.3-0.24-0.6-0.47-0.9-0.69L135,5.49
	l-1-0.69l-0.2-0.13c-0.35-0.22-0.7-0.44-1.06-0.65l-0.13-0.08l-0.12-0.06c-0.33-0.19-0.66-0.37-1-0.54l-0.37-0.2l-0.83-0.4
	l-0.58-0.26l-0.6-0.25l-0.82-0.33l-0.32-0.12l-1.1-0.38l0,0c-2.7-0.87-5.51-1.34-8.34-1.4h-1.36c-2.81,0.06-5.6,0.53-8.28,1.39l0,0
	l-1.1,0.38l-0.32,0.12c-0.28,0.1-0.55,0.22-0.83,0.33l-0.59,0.25l-0.58,0.26l-0.83,0.4l-0.38,0.2c-0.33,0.17-0.67,0.35-1,0.54
	l-0.12,0.06L103,4c-0.36,0.21-0.71,0.43-1.06,0.65l-0.2,0.13l-1,0.69l-0.23,0.17c-0.3,0.22-0.6,0.45-0.9,0.69l-0.3,0.24
	c-0.26,0.21-0.52,0.42-0.77,0.64l-0.39,0.35c-0.21,0.18-0.41,0.38-0.62,0.57L97,8.62l-0.48,0.49L96,9.73l-0.35,0.39l-0.64,0.76
	l-0.24,0.31c-0.24,0.29-0.46,0.59-0.69,0.9l-0.16,0.23c-0.24,0.34-0.47,0.67-0.69,1l-0.14,0.21c-0.22,0.35-0.44,0.7-0.64,1.06
	c-0.03,0.04-0.06,0.08-0.08,0.13L4,167.81v0.07c-0.24,0.4-0.46,0.81-0.67,1.23v0.07c-0.21,0.42-0.42,0.84-0.61,1.27v0.09
	c-0.18,0.41-0.36,0.82-0.52,1.24l-0.06,0.15c-0.15,0.39-0.29,0.78-0.43,1.18c0,0.08-0.05,0.16-0.08,0.25
	c-0.12,0.35-0.22,0.71-0.33,1.07c0,0.12-0.07,0.25-0.11,0.38c-0.08,0.31-0.16,0.62-0.23,0.94s-0.09,0.35-0.12,0.52
	s-0.12,0.55-0.17,0.82l-0.12,0.67c0,0.23-0.07,0.47-0.1,0.71s-0.07,0.52-0.1,0.77s0,0.43-0.06,0.64s0,0.57-0.07,0.85v0.61
	c0,0.28,0,0.57,0,0.85c0,0.12,0,0.24,0,0.36s0,0.21,0,0.31s0,0.48,0,0.71s0,0.57,0,0.85s0,0.3,0,0.45c0,0.37,0.06,0.73,0.1,1.09
	c0,0,0,0.09,0,0.13c0.56,4.66,2.24,9.12,4.9,13l0.09,0.13c0.23,0.34,0.47,0.67,0.71,1l0.36,0.46l0.51,0.64
	c0.16,0.19,0.32,0.38,0.49,0.56l0.44,0.51l0.51,0.53l0.5,0.51c0.14,0.15,0.3,0.29,0.45,0.43l0.62,0.59l0.35,0.29
	c0.26,0.24,0.53,0.46,0.81,0.69l0.2,0.16l1,0.78l0,0c2.43,1.75,5.1,3.12,7.94,4.07l0,0c0.43,0.14,0.86,0.27,1.3,0.39h0.16l1.14,0.29
	l0.34,0.08l1,0.19l0.52,0.1l0.83,0.12l0.67,0.08l0.72,0.08l0.78,0.06h0.66h0.82h177.45h0.84h0.62l0.84-0.07l0.64-0.06l0.78-0.1
	l0.71-0.11l0.66-0.11l0.82-0.17l0.52-0.12c0.32-0.07,0.64-0.15,0.95-0.24l0.38-0.1l1.07-0.33l0.25-0.09
	c0.39-0.13,0.79-0.27,1.17-0.42L217,210c0.42-0.16,0.84-0.34,1.25-0.52h0.08c0.43-0.19,0.86-0.4,1.28-0.61h0.07
	c0.41-0.21,0.82-0.43,1.23-0.67h0.06h0.06c0.37-0.21,0.73-0.43,1.09-0.66l0.25-0.17l0.86-0.58l0.44-0.31
	c0.19-0.15,0.38-0.3,0.58-0.44l0.64-0.51l0.31-0.26l0.84-0.72v-0.05c2.09-1.89,3.89-4.08,5.35-6.49c0.02-0.04,0.04-0.08,0.07-0.12
	c0.21-0.35,0.42-0.71,0.61-1.07s0.25-0.47,0.37-0.7s0.18-0.34,0.26-0.52c0.18-0.37,0.36-0.75,0.52-1.14l0.06-0.12
	c0.36-0.85,0.69-1.72,1-2.61l0,0c0.13-0.39,0.24-0.79,0.35-1.19l0.06-0.2c0.09-0.33,0.16-0.66,0.24-1c0-0.15,0.07-0.3,0.1-0.45
	s0.1-0.51,0.15-0.76s0.09-0.49,0.13-0.73s0.05-0.34,0.07-0.51c0.05-0.35,0.1-0.69,0.13-1v-0.27c0-0.43,0.08-0.87,0.1-1.31l0,0
	C235.78,181.74,235.61,179.16,235.1,176.63z M117.84,161c-16.28,0-29.47-13.19-29.47-29.47c0-16.28,13.19-29.47,29.47-29.47
	c16.28,0,29.47,13.19,29.47,29.47c0.01,16.27-13.18,29.46-29.45,29.47C117.85,161,117.85,161,117.84,161z"/>
<path class="st1" d="M117.95,161c-16.28,0-29.47-13.19-29.47-29.47c0-16.28,13.19-29.47,29.47-29.47
	c16.28,0,29.47,13.19,29.47,29.47c0.01,16.27-13.18,29.46-29.45,29.47C117.96,161,117.95,161,117.95,161z"/>
</svg>
