<svg id="圖層_1" data-name="圖層 1" xmlns="http://www.w3.org/2000/svg" viewBox="0 0 235.69 212.01"><defs><style>.cls-1{fill:#666;}</style></defs><path class="cls-1" d="M235.1,176.63v0c-.09-.43-.19-.87-.3-1.3,0-.06,0-.12,0-.18-.1-.38-.21-.76-.32-1.13,0-.11-.07-.22-.1-.32-.1-.33-.21-.65-.33-1l-.16-.45-.33-.84-.24-.55c-.1-.25-.21-.49-.33-.74s-.19-.41-.29-.61l-.35-.69-.33-.6-.21-.39L143.36,14.73a.57.57,0,0,0-.08-.13c-.2-.36-.42-.71-.64-1.06l-.14-.21c-.22-.34-.45-.67-.69-1l-.16-.23-.69-.9-.24-.31-.65-.76-.34-.39-.57-.62-.48-.49-.48-.47c-.21-.19-.41-.39-.62-.57l-.39-.35c-.25-.22-.51-.43-.77-.64l-.3-.24q-.45-.36-.9-.69L135,5.49l-1-.69-.2-.13c-.35-.22-.7-.44-1.06-.65l-.13-.08-.12-.06c-.33-.19-.66-.37-1-.54l-.37-.2-.83-.4-.58-.26-.6-.25-.82-.33-.32-.12-1.1-.38h0A29.14,29.14,0,0,0,118.53,0h-1.36a29.26,29.26,0,0,0-8.28,1.39h0l-1.1.38-.32.12c-.28.1-.55.22-.83.33l-.59.25-.58.26-.83.4-.38.2c-.33.17-.67.35-1,.54l-.12.06L103,4c-.36.21-.71.43-1.06.65l-.2.13-1,.69-.23.17q-.45.33-.9.69l-.3.24c-.26.21-.52.42-.77.64l-.39.35c-.21.18-.41.38-.62.57L97,8.62l-.48.49L96,9.73l-.35.39-.64.76-.24.31c-.24.29-.46.59-.69.9l-.16.23c-.24.34-.47.67-.69,1l-.14.21c-.22.35-.44.7-.64,1.06a.57.57,0,0,0-.08.13L4,167.81l0,.07c-.24.4-.46.81-.67,1.23l0,.07c-.21.42-.42.84-.61,1.27l0,.09c-.18.41-.36.82-.52,1.24l-.06.15c-.15.39-.29.78-.43,1.18,0,.08-.05.16-.08.25-.12.35-.22.71-.33,1.07,0,.12-.07.25-.11.38-.08.31-.16.62-.23.94s-.09.35-.12.52-.12.55-.17.82l-.12.67c0,.23-.07.47-.1.71s-.07.52-.1.77,0,.43-.06.64,0,.57-.07.85l0,.61c0,.28,0,.57,0,.85,0,.12,0,.24,0,.36s0,.21,0,.31,0,.48,0,.71,0,.57,0,.85,0,.3,0,.45c0,.37.06.73.1,1.09,0,0,0,.09,0,.13a29.18,29.18,0,0,0,4.9,13l.09.13c.23.34.47.67.71,1l.36.46.51.64c.16.19.32.38.49.56l.44.51.51.53.5.51c.14.15.3.29.45.43l.62.59.35.29c.26.24.53.46.81.69l.2.16,1,.78,0,0a29.81,29.81,0,0,0,7.94,4.07h0c.43.14.86.27,1.3.39l.16,0,1.14.29.34.08,1,.19.52.1.83.12.67.08.72.08.78.06.66,0,.82,0H206.59l.84,0,.62,0,.84-.07.64-.06.78-.1.71-.11.66-.11.82-.17.52-.12c.32-.07.64-.15.95-.24l.38-.1,1.07-.33.25-.09c.39-.13.79-.27,1.17-.42L217,210c.42-.16.84-.34,1.25-.52l.08,0c.43-.19.86-.4,1.28-.61l.07,0c.41-.21.82-.43,1.23-.67l.06,0,.06,0c.37-.21.73-.43,1.09-.66l.25-.17.86-.58.44-.31c.19-.15.38-.3.58-.44l.64-.51.31-.26.84-.72,0-.05a29,29,0,0,0,5.35-6.49.75.75,0,0,1,.07-.12c.21-.35.42-.71.61-1.07s.25-.47.37-.7.18-.34.26-.52c.18-.37.36-.75.52-1.14l.06-.12c.36-.85.69-1.72,1-2.61v0c.13-.39.24-.79.35-1.19l.06-.2c.09-.33.16-.66.24-1,0-.15.07-.3.1-.45s.1-.51.15-.76.09-.49.13-.73.05-.34.07-.51c.05-.35.1-.69.13-1l0-.27c0-.43.08-.87.1-1.31v0A29.41,29.41,0,0,0,235.1,176.63ZM117.84,161a29.47,29.47,0,1,1,29.47-29.47A29.46,29.46,0,0,1,117.84,161Z"/></svg>